<svg width="166" height="36" viewBox="0 0 166 36" fill="none" xmlns="http://www.w3.org/2000/svg">
<g clip-path="url(#clip0)">
<path d="M0 0.524902H12.0083C19.6282 0.524902 24.5388 6.67056 24.5388 15.0856C24.5388 19.723 22.9725 23.7825 19.981 26.2915C17.5821 28.1944 14.5765 29.167 11.5286 29.0402H0V0.524902ZM11.1335 24.0644C16.552 24.0644 18.6687 20.752 18.6687 15.1279C18.6687 9.50376 16.1993 5.50063 11.2887 5.50063H5.78545V24.0926L11.1335 24.0644Z" fill="white"/>
<path d="M25.4136 18.835C25.4136 12.929 30.1972 8.15063 36.1097 8.15063C42.0221 8.15063 46.8057 12.929 46.8057 18.835C46.8057 24.9384 42.4595 29.6463 36.1097 29.6463C29.7598 29.6463 25.4136 24.9666 25.4136 18.835ZM41.3307 18.835C41.3307 14.8601 39.4539 12.1397 36.1379 12.1397C32.8218 12.1397 30.9451 14.846 30.9451 18.835C30.9451 22.8241 32.7795 25.4881 36.1379 25.4881C39.4963 25.4881 41.3025 22.8241 41.3025 18.835H41.3307Z" fill="white"/>
<path d="M47.9203 18.835C47.9203 12.7316 51.9137 8.08008 58.1225 8.08008C63.4282 8.08008 66.7019 11.1529 67.4215 15.5789H62.1017C61.8054 13.7465 60.2109 12.4074 58.3483 12.4356C55.0745 12.4356 53.3812 14.9446 53.3812 18.8914C53.3812 22.8381 54.9475 25.3471 58.2495 25.3471C60.3379 25.5163 62.1723 23.9657 62.3557 21.8796H67.5909C67.2381 26.2351 63.8374 29.7026 58.3624 29.7026C51.9419 29.6462 47.9203 24.9665 47.9203 18.835Z" fill="white"/>
<path d="M81.9982 29.0402V26.6581H81.8854C80.6013 28.6314 78.3576 29.7591 76.0152 29.6322C71.4574 29.6322 68.9034 26.7144 68.9034 22.2462V8.58758H74.2937V21.3018C74.2937 23.698 75.3803 25.0089 77.6803 25.0089C80.2344 25.0089 81.8007 23.106 81.8007 20.3855V8.57349H87.2193V29.0402H81.9982Z" fill="white"/>
<path d="M113.663 0.651733H119.081V5.72613H113.663V0.651733ZM113.663 8.60162H119.081V29.0401H113.663V8.60162Z" fill="white"/>
<path d="M121.353 29.6462H126.772C127.209 30.9148 128.366 31.9156 130.878 31.9156C133.954 31.9156 135.422 30.4497 135.422 27.6588V25.4035H135.309C133.997 26.9963 132.021 27.8843 129.961 27.7997C125.403 27.7997 120.944 24.2053 120.944 18.0315C120.944 11.8577 124.585 8.08005 129.763 8.08005C131.993 7.96729 134.124 8.99626 135.422 10.7864H135.506V8.5734H140.742V27.4614C140.883 29.7872 139.994 32.0707 138.3 33.6775C136.593 35.2703 133.954 35.9892 130.92 35.9892C125.333 36.0174 121.904 33.6212 121.353 29.6462ZM135.718 17.9187C135.718 14.9446 134.109 12.3792 130.85 12.3792C128.098 12.3792 126.264 14.5358 126.264 17.961C126.264 21.3862 128.098 23.4724 130.892 23.4724C134.279 23.4583 135.718 20.9916 135.718 17.9187Z" fill="white"/>
<path d="M148.375 11.3785H148.488C149.73 9.22193 152.072 7.92514 154.556 8.02381C158.789 8.02381 161.625 11.2094 161.625 15.6777V29.0403H156.193V16.4952C156.193 14.2963 154.923 12.7458 152.637 12.7458C150.351 12.7458 148.474 14.6628 148.474 17.4537V29.0544H143.056V8.58763H148.361L148.375 11.3785Z" fill="white"/>
<path d="M101.288 11.8578C97.0544 10.9416 95.0648 10.265 95.0648 7.9533C95.0648 5.96583 97.1109 4.59856 100.215 4.59856C103.066 4.59856 105.182 5.92354 105.676 8.5735H111.236C110.671 3.03396 106.565 0.00341797 100.3 0.00341797C94.0347 0.00341797 89.364 2.92119 89.364 8.54531C89.364 14.5077 94.0347 15.8327 99.1569 17.0026C103.503 17.9893 106.226 18.5531 106.226 21.3441C106.226 23.9799 103.63 25.0089 100.681 25.0089C96.617 25.0089 94.6556 23.6557 94.2605 20.2305H88.5879C88.7855 26.2493 93.1881 29.6745 100.921 29.6745C107.341 29.6745 112.026 26.4466 112.026 20.6675C111.955 14.5218 107.158 13.1264 101.288 11.8578Z" fill="white"/>
<path d="M163.841 12.3651C162.656 12.3651 161.682 11.4066 161.682 10.2085C161.682 9.01038 162.642 8.05188 163.841 8.05188C165.041 8.05188 166 9.01038 166 10.2085C166 11.4066 165.026 12.3651 163.841 12.3651ZM163.841 8.39017C162.839 8.39017 162.021 9.20771 162.021 10.2085C162.021 11.2093 162.839 12.0268 163.841 12.0268C164.843 12.0268 165.661 11.2093 165.661 10.2085C165.661 9.72925 165.464 9.2641 165.125 8.9258C164.787 8.58751 164.321 8.39017 163.841 8.39017Z" fill="white"/>
<path d="M163.093 9.06681H163.785C164.025 9.03862 164.264 9.095 164.476 9.22186C164.631 9.34872 164.73 9.54606 164.73 9.75749C164.744 10.0394 164.561 10.2931 164.293 10.3636L164.787 11.2516H164.321L163.883 10.4341H163.517V11.2516H163.107L163.093 9.06681ZM163.502 9.4192V10.1099H163.926C164.025 10.124 164.123 10.0958 164.194 10.0253C164.264 9.95483 164.307 9.87025 164.307 9.77158C164.307 9.64472 164.25 9.53196 164.137 9.47558C163.996 9.44739 163.841 9.44739 163.7 9.47558L163.502 9.4192Z" fill="white"/>
</g>
<defs>
<clipPath id="clip0">
<rect width="166" height="36" fill="white"/>
</clipPath>
</defs>
</svg>
