<svg width="117" height="62" viewBox="0 0 117 62" fill="none" xmlns="http://www.w3.org/2000/svg">
<path d="M52.3756 40.2378C54.8504 40.2378 57.1877 40.8336 57.3405 40.8794V45.1873C57.2641 45.1568 55.1254 44.5763 53.3533 44.5763C51.3063 44.5763 50.2064 45.2637 50.2064 46.2261C50.2064 47.4482 51.7035 47.876 52.5437 48.1509L53.9491 48.594C57.2488 49.648 58.7612 51.9089 58.7612 54.3531C58.7612 59.4096 54.3005 61.1205 50.405 61.1205C47.7011 61.1205 45.1652 60.6164 44.9055 60.5706V55.9419C45.3485 56.0488 47.4872 56.6904 49.7176 56.6904C52.2534 56.6904 53.4144 55.9571 53.4144 54.8114C53.4144 53.7879 52.4062 53.2074 51.1383 52.8102C50.8327 52.7033 50.3592 52.5658 50.0536 52.4589C47.2123 51.5576 44.8597 49.9077 44.8597 46.5622C44.8597 42.7737 47.6858 40.2378 52.3756 40.2378ZM95.0882 40.2378C101.29 40.2378 105.751 44.9124 105.751 50.6715C105.751 56.4307 101.29 61.1053 95.0882 61.1053C88.886 61.1053 84.4406 56.4307 84.4406 50.6715C84.4406 44.9124 88.886 40.2378 95.0882 40.2378ZM21.2883 40.2378C23.6867 40.2378 25.4588 40.8183 25.9323 40.9558V46.3636C25.7338 46.2567 24.0839 45.2943 21.655 45.2943C18.3553 45.2943 16.0791 47.5857 16.0791 50.6715C16.0791 53.6657 18.2636 56.0488 21.655 56.0488C24.0534 56.0488 25.7185 55.1017 25.9323 54.9795V60.3873C25.306 60.5706 23.5645 61.1053 21.2883 61.1053C15.5597 61.1053 10.5491 57.164 10.5491 50.6715C10.5491 44.6527 15.1014 40.2378 21.2883 40.2378ZM74.4346 40.2378C76.833 40.2378 78.6051 40.8183 79.0787 40.9558V46.3636C78.8801 46.2567 77.2302 45.2943 74.8013 45.2943C71.5016 45.2943 69.2254 47.5857 69.2254 50.6715C69.2254 53.6657 71.4099 56.0488 74.8013 56.0488C77.1997 56.0488 78.8648 55.1017 79.0787 54.9795V60.3873C78.437 60.5706 76.7108 61.1053 74.4346 61.1053C68.706 61.1053 63.6954 57.164 63.6954 50.6715C63.6954 44.6527 68.2325 40.2378 74.4346 40.2378ZM38.0312 40.6044V60.7539H32.9442V40.6044H38.0312ZM95.0882 45.3707C92.0635 45.3707 89.8332 47.7385 89.8332 50.6715C89.8332 53.6046 92.0788 55.9724 95.0882 55.9724C98.0977 55.9724 100.359 53.6046 100.359 50.6715C100.359 47.7538 98.1129 45.3707 95.0882 45.3707ZM30.393 0C31.7832 0 32.9136 1.13045 32.9136 2.52059V29.2694C32.9136 30.6596 31.7832 31.79 30.393 31.79C29.0029 31.79 27.8724 30.6596 27.8724 29.2694V2.52059C27.8724 1.13045 29.0029 0 30.393 0ZM85.9072 31.79C84.517 31.79 83.3866 30.6596 83.3866 29.2694V2.52059C83.3866 1.13045 84.517 0 85.9072 0C87.2973 0 88.4277 1.13045 88.4277 2.52059V29.2694C88.4277 30.6596 87.2973 31.79 85.9072 31.79ZM16.5069 9.50187C17.897 9.50187 19.0275 10.6323 19.0275 12.0225V24.2588C19.0275 25.6489 17.897 26.7794 16.5069 26.7794C15.1167 26.7794 13.9863 25.6489 13.9863 24.2588V12.0072C13.9863 10.617 15.1167 9.50187 16.5069 9.50187ZM2.62069 16.4373C4.01083 16.4373 5.14128 17.5678 5.14128 18.9579V24.2435C5.14128 25.6337 4.01083 26.7641 2.62069 26.7641C1.23054 26.7641 0.100098 25.6337 0.100098 24.2435V18.9579C0.100098 17.5678 1.23054 16.4373 2.62069 16.4373ZM44.2792 9.50187C45.6693 9.50187 46.7998 10.6323 46.7998 12.0225V24.2588C46.7998 25.6489 45.6693 26.7794 44.2792 26.7794C42.8891 26.7794 41.7586 25.6489 41.7586 24.2588V12.0072C41.7433 10.617 42.8891 9.50187 44.2792 9.50187ZM58.1348 26.7641C56.7447 26.7641 55.6142 25.6337 55.6142 24.2435V18.9579C55.6142 17.5678 56.7447 16.4373 58.1348 16.4373H58.1501C59.5402 16.4373 60.6707 17.5678 60.6707 18.9579V24.2435C60.6707 25.6337 59.5402 26.7641 58.1501 26.7641H58.1348ZM99.7933 9.50187C101.183 9.50187 102.314 10.6323 102.314 12.0225V24.2588C102.314 25.6489 101.183 26.7794 99.7933 26.7794C98.4032 26.7794 97.2727 25.6489 97.2727 24.2588V12.0072C97.2575 10.617 98.4032 9.50187 99.7933 9.50187ZM113.679 16.4373C115.07 16.4373 116.2 17.5678 116.2 18.9579V24.2435C116.2 25.6337 115.07 26.7641 113.679 26.7641C112.289 26.7641 111.159 25.6337 111.159 24.2435V18.9579C111.144 17.5678 112.274 16.4373 113.679 16.4373ZM72.021 9.50187C73.4111 9.50187 74.5416 10.6323 74.5416 12.0225V24.2588C74.5416 25.6489 73.4111 26.7794 72.021 26.7794C70.6308 26.7794 69.5004 25.6489 69.5004 24.2588V12.0072C69.5004 10.617 70.6308 9.50187 72.021 9.50187Z" fill="white"/>
</svg>
