<svg viewBox="0 0 800 200" fill="CurrentColor" xmlns="http://www.w3.org/2000/svg">
    <path d="M72.9493 100.171C76.161 98.0253 79.9369 96.8799 83.7996 96.8799C88.9776 96.8852 93.9421 98.9445 97.6035 102.606C101.265 106.267 103.324 111.232 103.33 116.41C103.33 120.273 102.184 124.048 100.038 127.26C97.8922 130.472 94.842 132.975 91.2734 134.453C87.7047 135.931 83.7779 136.318 79.9894 135.565C76.201 134.811 72.7211 132.951 69.9898 130.22C67.2584 127.488 65.3984 124.008 64.6448 120.22C63.8912 116.432 64.278 112.505 65.7562 108.936C67.2344 105.367 69.7376 102.317 72.9493 100.171Z"/>
    <path fill-rule="evenodd" clip-rule="evenodd" d="M99.9406 200.002C179.941 200.212 199.991 180.262 200.211 100.262C200.431 20.2616 180.471 0.211635 100.471 0.00163503C20.4706 -0.208365 0.42062 19.7416 0.21062 99.7416C0.000620217 179.742 19.9406 199.792 99.9406 200.002ZM153.33 153.122H134.58V65.6316H47.0801V46.8816H153.33V153.122ZM62.5323 148.239C68.8274 152.445 76.2285 154.69 83.7996 154.69C93.948 154.677 103.677 150.639 110.853 143.463C118.029 136.287 122.066 126.558 122.08 116.41C122.08 108.839 119.834 101.438 115.628 95.1427C111.422 88.8476 105.443 83.9411 98.4487 81.0438C91.4539 78.1465 83.7571 77.3884 76.3315 78.8654C68.9059 80.3425 62.0851 83.9883 56.7315 89.3419C51.3779 94.6954 47.7321 101.516 46.2551 108.942C44.778 116.367 45.5361 124.064 48.4334 131.059C51.3308 138.054 56.2372 144.032 62.5323 148.239Z"/>
    <path d="M279.25 113.39C288.55 87.45 292.3 76.95 295.74 66.31C300.69 81.75 305.79 96.15 311.74 113.39H279.25ZM285.7 47.27L245.52 153.13H266.06L274.6 128.38H316.43L324.83 153.13H345.52L306.84 47.27H285.7Z"/>
    <path d="M387.579 139.93C376.479 139.93 370.029 130.79 370.029 114.93C370.029 100.69 377.529 91.69 388.179 91.69C398.179 91.69 404.369 100.84 404.369 115.83C404.369 131.73 397.929 139.97 387.579 139.97V139.93ZM370.519 88.5V47.27H352.939V153.13H369.729V143.38C374.839 150.73 381.729 154.63 391.929 154.63C410.369 154.63 422.669 140.23 422.669 115.79C422.669 91.35 411.419 77 393.869 77C389.347 76.9428 384.875 77.9546 380.817 79.953C376.759 81.9514 373.231 84.8799 370.519 88.5"/>
    <path d="M459.54 89.7299C466.75 89.7299 472.45 93.6299 476.2 100.24L489.27 91.3799C482.66 80.8699 471.7 76.3799 459.84 76.3799C441.37 76.3799 430.84 87.1899 430.84 98.8999C430.84 110.31 438.19 117.07 449.75 120.67L457.75 123.22C469.01 126.82 471.56 128.92 471.56 133.88C471.56 138.38 467.36 141.69 459.7 141.69C451.44 141.69 444.54 137.18 440.64 129.52L426.98 138.52C433.28 147.98 443.64 155.34 458.98 155.34C477.6 155.34 489.15 145.28 489.15 131.46C489.15 119.46 481.65 113.3 468.44 109.09L460.44 106.69C450.83 103.69 448.44 101.59 448.44 97.0899C448.44 92.5899 452.04 89.7299 459.55 89.7299"/>
    <path d="M524.81 92.5801H539.27V78.5101H524.81V54.1001H507.34L507 78.5101H495.32V92.5801H507V133.48C507 140.4 508.06 145.67 511.21 149.28C514.36 152.89 519.21 154.69 526.54 154.69C530.967 154.677 535.375 154.109 539.66 153V139C537.347 139.855 534.906 140.312 532.44 140.35C527.03 140.35 524.81 137.65 524.81 129.98V92.5801Z"/>
    <path d="M565.999 78.5101H549.199V153.51H566.799V118.51C566.799 110.51 568.119 105.23 570.709 101.33C573.969 96.6501 578.629 93.8201 586.709 93.9101C588.892 93.9476 591.058 94.284 593.149 94.9101V78.5101C591.068 77.8408 588.895 77.5033 586.709 77.5101C576.349 77.5101 570.499 81.8801 565.999 90.0101V78.5101Z"/>
    <path d="M643.81 121.74C643.65 125.94 642.91 130.15 640.5 133.61C637.2 138.56 631.64 141.42 624.88 141.42C617.07 141.42 613.46 137.36 613.46 131.96C613.46 127.75 615.26 124.89 619.92 122.79C625.18 120.24 635.25 118.73 643.81 118.28V121.74ZM660.55 106C660.55 94.2801 658.98 88.1301 654.32 83.7701C649.32 78.9601 642.15 76.5601 631.94 76.5601C612.86 76.5601 600.82 85.5601 599.62 101.8L616.47 103.3C617.37 95.0401 621.42 90.3801 630.59 90.3801C635.25 90.3801 638.85 91.3801 640.95 93.5301C643.05 95.6801 643.81 98.3401 643.81 102.53V106.53C631.94 107.29 617.52 109.39 610.16 112.69C601.3 116.75 596.49 123.06 596.49 132.69C596.49 146.06 606.1 154.63 619.77 154.63C630.43 154.63 638.54 150.88 644.25 143.97C645.88 151.44 651.14 154.2 660.54 154.2C663.255 154.254 665.96 153.849 668.54 153V141.6C661.76 142.82 660.54 138.85 660.54 133L660.55 106Z"/>
    <path d="M690.28 115.37C690.28 98.7201 698.09 91.0701 708.28 91.0701C715.33 91.0701 720.73 94.3701 722.84 104.27L738.6 98.8701C735.14 85.5201 724.94 76.3701 708.72 76.3701C686.36 76.3701 672.25 91.2201 672.25 115.67C672.25 140.27 686.06 155.27 707.82 155.27C724.82 155.27 734.69 146.27 739.05 133.82L723.29 128.42C721.48 136.42 716.68 140.57 708.72 140.57C697.17 140.57 690.26 131.87 690.26 115.37"/>
    <path d="M772.47 92.5801H786.92V78.5101H772.47V54.1001H755L754.69 78.5101H743V92.5801H754.72V133.48C754.72 140.4 755.78 145.67 758.93 149.28C762.08 152.89 766.93 154.69 774.26 154.69C778.663 154.671 783.047 154.103 787.31 153V139C785 139.854 782.562 140.311 780.1 140.35C774.68 140.35 772.47 137.65 772.47 129.98V92.5801Z"/>
    <path d="M799.79 62.9301C799.786 64.6725 799.265 66.3747 798.294 67.8213C797.323 69.2679 795.944 70.3939 794.333 71.0571C792.722 71.7202 790.95 71.8907 789.242 71.5468C787.533 71.203 785.965 70.3604 784.736 69.1255C783.507 67.8906 782.671 66.3189 782.335 64.6092C781.999 62.8994 782.178 61.1285 782.848 59.5202C783.519 57.9119 784.651 56.5385 786.102 55.5737C787.553 54.609 789.257 54.0961 791 54.1001C792.167 54.0637 793.33 54.2676 794.416 54.699C795.501 55.1304 796.486 55.7802 797.311 56.608C798.135 57.4359 798.78 58.4242 799.206 59.5117C799.633 60.5992 799.832 61.7627 799.79 62.9301V62.9301ZM798.18 62.9301C798.216 61.9627 798.057 60.9979 797.711 60.0935C797.366 59.1891 796.842 58.3636 796.17 57.6664C795.498 56.9692 794.693 56.4146 793.802 56.0358C792.911 55.657 791.953 55.4618 790.985 55.4618C790.017 55.4618 789.059 55.657 788.168 56.0358C787.277 56.4146 786.471 56.9692 785.8 57.6664C785.128 58.3636 784.604 59.1891 784.259 60.0935C783.913 60.9979 783.754 61.9627 783.79 62.9301C783.754 63.8975 783.913 64.8623 784.259 65.7667C784.604 66.6711 785.128 67.4966 785.8 68.1938C786.471 68.891 787.277 69.4455 788.168 69.8243C789.059 70.2031 790.017 70.3984 790.985 70.3984C791.953 70.3984 792.911 70.2031 793.802 69.8243C794.693 69.4455 795.498 68.891 796.17 68.1938C796.842 67.4966 797.366 66.6711 797.711 65.7667C798.057 64.8623 798.216 63.8975 798.18 62.9301V62.9301ZM793.18 63.7101L795.39 67.7101H792.73L790.85 64.0001H789.79V67.6801H787.37V58.0001H791.56C793.86 58.0001 795.14 59.1101 795.14 61.0601C795.152 61.6507 794.972 62.2292 794.625 62.7076C794.278 63.186 793.785 63.538 793.22 63.7101H793.18ZM789.75 62.3301H791.07C792.07 62.3301 792.61 61.8801 792.61 61.0801C792.61 60.2801 792.09 59.8001 791.07 59.8001H789.75V62.3301Z"/>
</svg>