<svg width="135" height="53" viewBox="0 0 135 53" fill="none" xmlns="http://www.w3.org/2000/svg">
<path fill-rule="evenodd" clip-rule="evenodd" d="M120.7 7.33121L119.243 1.86033C119.188 1.68118 119.049 1.52959 118.869 1.48825L113.362 0.0412952C113.182 -4.64227e-05 112.988 0.0412953 112.849 0.179101L109.16 3.84473L116.885 11.5205L120.575 7.85487C120.686 7.70328 120.741 7.51035 120.7 7.33121Z" fill="white"/>
<path fill-rule="evenodd" clip-rule="evenodd" d="M97.564 15.696L99.0204 21.1669C99.0758 21.346 99.2145 21.4976 99.3948 21.5389L104.915 22.9859C105.096 23.0272 105.29 22.9859 105.428 22.8481L109.118 19.1687L101.392 11.4929L97.6888 15.1723C97.5778 15.3101 97.5224 15.5168 97.564 15.696Z" fill="white"/>
<path fill-rule="evenodd" clip-rule="evenodd" d="M104.915 0.0137261L99.4087 1.46068C99.2284 1.51581 99.0759 1.65361 99.0343 1.83276L97.5778 7.30364C97.5224 7.48279 97.5779 7.67571 97.7166 7.81352L101.42 11.4929L109.146 3.81716L105.456 0.137751C105.304 0.0275067 105.109 -0.0276156 104.915 0.0137261Z" fill="white"/>
<path fill-rule="evenodd" clip-rule="evenodd" d="M120.505 15.131L116.858 11.5067L109.132 19.1825L112.78 22.8068C112.946 22.9721 113.196 23.041 113.418 22.9721L118.786 21.5527C119.021 21.4976 119.202 21.3185 119.257 21.0842L120.686 15.7511C120.741 15.5444 120.672 15.2964 120.505 15.131Z" fill="white"/>
<path fill-rule="evenodd" clip-rule="evenodd" d="M109.132 3.83093L101.406 11.5067L109.132 19.1825L116.858 11.5067L109.132 3.83093Z" fill="white" fill-opacity="0.5"/>
<path fill-rule="evenodd" clip-rule="evenodd" d="M7.67034 43.891L2.17765 27.5197C2.12217 27.3681 1.98345 27.2579 1.81701 27.2579H0.52708C0.235803 27.2579 0 27.0236 0 26.7342V24.7498C0 24.4605 0.235803 24.2262 0.52708 24.2262H8.87705C9.16833 24.2262 9.40413 24.4605 9.40413 24.7498V26.7342C9.40413 27.0236 9.16833 27.2579 8.87705 27.2579H7.82289C7.55935 27.2579 7.37903 27.5197 7.46225 27.7678C7.46225 27.7678 9.51501 33.9001 10.2779 36.1739C10.3888 36.4909 10.8605 36.5047 10.9853 36.1739C12.2059 33.0044 15.4931 24.5569 15.4931 24.5569C15.5625 24.3915 15.729 24.2124 15.9787 24.2124H18.4614C18.6417 24.2124 18.8498 24.364 18.933 24.5707C18.933 24.5707 22.997 35.7192 23.1635 36.1601C23.3022 36.5322 23.7876 36.4495 23.8847 36.1601C23.9818 35.8708 26.7143 27.7402 26.7143 27.7402C26.7975 27.4922 26.6172 27.2441 26.3675 27.2441H25.1885C24.8972 27.2441 24.6615 27.0099 24.6615 26.7205V24.7361C24.6615 24.4467 24.8972 24.2124 25.1885 24.2124H32.7756C33.1501 24.2124 33.3859 24.5845 33.2888 24.8739C33.0946 25.4527 32.8033 26.2519 32.5953 26.8858C32.5259 27.0788 32.3456 27.2441 32.0821 27.2441H30.8615C30.6951 27.2441 30.5563 27.3544 30.5009 27.506L24.8973 43.891C24.8279 44.1115 24.6199 44.2493 24.398 44.2493H21.4297C21.2078 44.2493 20.9997 44.1115 20.9304 43.9048C20.9304 43.9048 16.7138 32.3567 16.5751 31.9709C16.4502 31.6263 15.9786 31.6539 15.8538 31.9571C15.6735 32.4256 11.1934 43.9186 11.1934 43.9186C11.1102 44.1253 10.916 44.2631 10.6941 44.2631H8.15577C7.94771 44.2493 7.73969 44.0977 7.67034 43.891Z" fill="white"/>
<path fill-rule="evenodd" clip-rule="evenodd" d="M44.0938 39.812C44.0938 39.9223 43.8997 40.1014 43.8165 40.1841C43.2894 40.6113 42.7761 40.942 42.2768 41.1625C41.722 41.4106 41.1949 41.4519 40.6817 41.4519C39.8911 41.4519 39.1005 41.1625 38.5734 40.5975C38.0464 40.0325 37.7828 39.3159 37.7828 38.4753C37.7828 37.2902 38.2406 36.5047 39.1283 35.9259C40.016 35.3471 41.4723 35.0577 43.2338 35.0577H44.0938V39.812ZM50.8348 41.259C49.7113 41.3141 49.1704 40.7905 49.1704 39.5226V30.4826C49.1704 26.5138 45.8276 24.0057 42.0549 24.0057C36.2155 24.0057 34.1072 26.7481 33.8714 29.8349C33.8436 30.1381 34.0933 30.3999 34.4123 30.3999H37.2835C37.5609 30.3999 37.7828 30.1932 37.8106 29.9176C37.9632 28.3053 39.0451 27.1477 40.8621 27.1477C42.8733 27.1477 44.08 28.1399 44.08 30.4413V32.3981H43.0397C39.4612 32.3981 36.9645 32.8529 35.3 33.9002C33.6356 34.9475 32.8034 36.8354 32.8034 39.0817C32.8034 40.7216 33.3721 42.0858 34.5233 43.1607C35.6607 44.2356 36.9922 44.7041 38.7537 44.7041C39.7802 44.7041 40.7927 44.4836 41.7775 44.0289C42.6374 43.6292 43.4835 43.1331 44.3158 42.389C44.4961 42.2236 44.7873 42.265 44.9122 42.4855C45.7444 43.9049 46.6182 44.3734 48.3381 44.3734C49.8777 44.3734 50.6267 42.9402 51.2925 42.0858C51.5283 41.7689 51.2648 41.2452 50.8348 41.259Z" fill="white"/>
<path fill-rule="evenodd" clip-rule="evenodd" d="M81.2524 15.3378C78.9638 15.3378 77.4519 16.0544 76.3007 17.4324C75.1495 18.8105 74.5808 20.3401 74.5808 23.0962V23.8266C74.5808 24.0746 74.3588 24.2124 74.2063 24.2124H66.4389C66.1476 24.2124 65.9118 24.4467 65.9118 24.7361V26.7205C65.9118 27.0099 66.1476 27.2442 66.4389 27.2442H66.855C67.1324 27.2442 67.2989 27.5336 67.2156 27.7678C67.2156 27.7678 64.386 34.2998 63.2487 36.9043C63.1238 37.1937 62.68 37.1937 62.5551 36.9043C61.39 34.2585 58.5467 27.7816 58.5467 27.7816C58.4357 27.5336 58.616 27.2579 58.8934 27.2579H60.1556C60.4469 27.2579 60.6827 27.0237 60.6827 26.7343V24.7499C60.6827 24.4605 60.4469 24.2262 60.1556 24.2262H49.9054C49.4893 24.2262 49.2535 24.6672 49.4338 24.9979C49.6974 25.494 50.3354 26.6516 50.5157 26.9823C50.5712 27.0788 50.7238 27.2579 50.9596 27.2579H52.4853C52.6379 27.2579 52.7627 27.3406 52.8321 27.4784C52.8321 27.4784 60.1695 43.0918 60.4052 43.5879C60.4469 43.6844 60.4192 43.8222 60.3776 43.9462C60.3082 44.1253 58.9628 46.8401 58.9628 46.8401C58.2276 48.3835 57.4093 49.7202 55.8419 49.7202C54.8155 49.7202 54.0249 48.9623 53.6504 48.6591C53.4562 48.5076 53.1233 48.5076 52.943 48.7143C52.6656 49.0037 51.875 49.8167 51.4589 50.2577C51.3063 50.4231 51.2647 50.7676 51.4727 50.9743C52.3327 51.8149 53.7198 52.9449 55.7448 53.0276C58.2415 53.124 60.3081 51.8287 61.5149 49.1552C61.5149 49.1552 70.1977 30.0967 71.3629 27.4922C71.4322 27.3406 71.5986 27.2855 71.6957 27.2855C72.2505 27.2855 74.1508 27.2855 74.1508 27.2855C74.3589 27.2855 74.5252 27.4509 74.5252 27.6576V40.8869C74.5252 40.9696 74.4975 41.0936 74.4281 41.1763C73.9704 41.7413 73.0827 42.8575 72.6389 43.4225C72.3615 43.767 72.5973 44.2769 73.055 44.2769H81.4327C81.724 44.2769 81.9598 44.0427 81.9598 43.7533V41.7964C81.9598 41.507 81.724 41.2728 81.4327 41.2728H79.9902C79.7821 41.2728 79.6157 41.1074 79.6157 40.9007V27.6714C79.6157 27.4647 79.7821 27.2993 79.9902 27.2993H82.5701C82.7227 27.2993 82.8891 27.2304 82.9862 27.0926C83.3607 26.5965 84.1097 25.6181 84.5119 25.1082C84.7754 24.7637 84.5396 24.2538 84.0819 24.2538H79.9208C79.7128 24.2538 79.5463 24.0884 79.5463 23.8817V20.9465C79.5463 19.5133 80.2814 18.0939 81.8211 18.0939C83.5548 18.0939 83.8323 19.5408 83.9016 20.6571C83.9155 20.9602 84.179 21.1669 84.4287 21.1669H86.8976C87.1889 21.1669 87.397 20.8913 87.397 20.6433C87.397 16.895 85.039 15.3378 81.2524 15.3378Z" fill="white"/>
<path fill-rule="evenodd" clip-rule="evenodd" d="M129.41 24.2124C129.147 24.0746 128.481 24.0057 127.912 24.0057C125.61 24.0057 124.514 24.7223 123.058 26.7618C122.85 27.065 122.364 26.8997 122.364 26.5276V24.7361C122.364 24.4467 122.128 24.2124 121.837 24.2124H118.009C117.87 24.2124 117.731 24.2676 117.62 24.4054C117.62 24.4054 116.428 25.8937 116.025 26.4036C115.79 26.7067 115.928 27.2717 116.441 27.2717C116.608 27.2717 116.913 27.2717 116.913 27.2717C117.121 27.2717 117.288 27.4371 117.288 27.6438V40.8731C117.288 40.9558 117.26 41.0798 117.204 41.1625C116.83 41.6173 115.873 42.8162 115.401 43.4088C115.124 43.7533 115.373 44.2631 115.803 44.2631H124.042C124.334 44.2631 124.569 44.0289 124.569 43.7395V41.7826C124.569 41.4933 124.334 41.259 124.042 41.259H122.739C122.531 41.259 122.364 41.0936 122.364 40.8869V30.9925C122.364 30.9236 122.392 30.7995 122.42 30.7582C123.321 29.077 125.346 27.9194 126.844 27.9194C128.106 27.9194 128.564 28.1123 129.258 28.2777C129.549 28.3466 129.785 28.0434 129.785 27.754V24.7637C129.771 24.4881 129.591 24.3089 129.41 24.2124Z" fill="white"/>
<path fill-rule="evenodd" clip-rule="evenodd" d="M113.348 41.2314H112.045C111.837 41.2314 111.67 41.066 111.67 40.8593V24.7361C111.67 24.4467 111.42 24.2124 111.129 24.2124H107.315C107.162 24.2124 106.996 24.2813 106.885 24.4191C106.691 24.6672 105.706 25.9074 105.304 26.3897C105.026 26.7342 105.276 27.2441 105.706 27.2441H106.205C106.413 27.2441 106.58 27.4371 106.58 27.6162V40.8317C106.58 40.9558 106.524 41.0936 106.483 41.1211C106.053 41.6586 105.151 42.7886 104.693 43.3536C104.388 43.7257 104.652 44.2218 105.096 44.2218L106.552 44.208H109.076L111.781 44.2218C111.934 44.2218 112.072 44.1666 112.156 44.0564C112.558 43.5603 113.321 42.5957 113.723 42.0996C114.056 41.7413 113.806 41.2314 113.348 41.2314Z" fill="white"/>
<path fill-rule="evenodd" clip-rule="evenodd" d="M95.844 39.812C95.844 39.9223 95.6499 40.1014 95.5666 40.1841C95.0396 40.6113 94.5263 40.942 94.027 41.1625C93.4722 41.4106 92.9451 41.4519 92.4319 41.4519C91.6413 41.4519 90.8507 41.1625 90.3236 40.5975C89.7965 40.0325 89.533 39.3159 89.533 38.4753C89.533 37.2902 89.9908 36.5047 90.8785 35.9259C91.7662 35.3471 93.2225 35.0577 94.984 35.0577H95.844V39.812ZM102.585 41.259C101.462 41.3141 100.921 40.7905 100.921 39.5226V30.4826C100.921 26.5138 97.5778 24.0057 93.8051 24.0057C87.9657 24.0057 85.8573 26.7481 85.6215 29.8349C85.5938 30.1381 85.8435 30.3999 86.1625 30.3999H89.0337C89.3111 30.3999 89.533 30.1932 89.5608 29.9176C89.7133 28.3053 90.7952 27.1477 92.6123 27.1477C94.6235 27.1477 95.8302 28.1399 95.8302 30.4413V32.3981H94.7899C91.2114 32.3981 88.7147 32.8529 87.0502 33.9002C85.3858 34.9475 84.5536 36.8354 84.5536 39.0817C84.5536 40.7216 85.1223 42.0858 86.2735 43.1607C87.4109 44.2356 88.7424 44.7041 90.5039 44.7041C91.5303 44.7041 92.5429 44.4836 93.5277 44.0289C94.3876 43.6292 95.2337 43.1331 96.066 42.389C96.2463 42.2236 96.5375 42.265 96.6624 42.4855C97.4946 43.9049 98.3684 44.3734 100.088 44.3734C101.628 44.3734 102.377 42.9402 103.043 42.0858C103.292 41.7689 103.015 41.2452 102.585 41.259Z" fill="white"/>
<path fill-rule="evenodd" clip-rule="evenodd" d="M133.197 25.5629V26.2106H133.613C133.821 26.2106 133.904 26.0452 133.904 25.8936C133.904 25.7283 133.821 25.5629 133.627 25.5629H133.197ZM134.154 27.0788H133.863L133.405 26.4311H133.183V27.0788H132.947V25.3424H133.627C134.001 25.3424 134.14 25.618 134.14 25.8936C134.14 26.1555 134.015 26.4035 133.682 26.4311L134.154 27.0788Z" fill="white"/>
<path fill-rule="evenodd" clip-rule="evenodd" d="M133.474 24.7086C132.642 24.7086 131.962 25.3839 131.962 26.2107C131.962 27.0375 132.642 27.7128 133.474 27.7128C134.307 27.7128 134.986 27.0375 134.986 26.2107C135 25.3839 134.32 24.7086 133.474 24.7086ZM133.474 24.9291C134.182 24.9291 134.764 25.5079 134.764 26.2107C134.764 26.9135 134.182 27.4923 133.474 27.4923C132.767 27.4923 132.184 26.9135 132.184 26.2107C132.184 25.5079 132.767 24.9291 133.474 24.9291Z" fill="white"/>
</svg>
