<svg width="162" height="34" viewBox="0 0 162 34" fill="none" xmlns="http://www.w3.org/2000/svg">
<path d="M107.716 29.2625C109.893 29.3539 111.903 28.4095 113.452 26.81L116.326 30.207C114.08 32.7509 110.94 34.1066 107.716 33.9391C100.739 33.9391 96.2455 28.8513 96.2455 21.9812C96.2455 15.2025 100.976 10.0233 107.102 10.0233C114.08 10.0233 117.959 15.7966 117.652 23.8396H101.283C101.827 27.1452 103.99 29.2625 107.716 29.2625ZM112.684 20.0161C112.224 16.8781 110.507 14.5932 107.172 14.5932C103.99 14.5932 101.827 16.543 101.283 20.0161H112.684ZM0 29.0036L12.643 15.0045H0.307003V10.6022H18.4481V15.0959L5.88888 29.1711H18.6853V33.4973H0V29.0036ZM32.8075 29.2625C34.9844 29.3539 36.9939 28.4095 38.5429 26.81L41.4175 30.207C39.1987 32.7357 36.0868 34.0914 32.8912 33.9391C25.9139 33.9391 21.4205 28.8513 21.4205 21.9812C21.4205 15.2025 26.1511 10.0233 32.2772 10.0233C39.2545 10.0233 43.1339 15.7966 42.8269 23.8396H26.3604C26.9884 27.1452 29.0816 29.2625 32.8075 29.2625ZM37.8451 20.0161C37.3846 16.8781 35.6682 14.5932 32.333 14.5932C29.1513 14.5932 26.9884 16.543 26.4441 20.0161H37.8451ZM70.0246 21.966C70.0246 14.6694 75.0623 10.0995 80.5744 10.0995C83.3653 10.0995 86.0028 11.4552 87.5517 13.5726V0H92.0451V33.4973H87.5517V30.3593C85.8214 32.6595 83.2258 34 80.4907 34C77.6439 33.9391 74.9227 32.629 72.9691 30.3593C71.0015 28.1048 69.9409 25.0887 70.0246 21.966ZM87.789 21.966C87.8029 19.3611 86.547 16.9391 84.4817 15.629C82.4164 14.319 79.8766 14.3038 77.8114 15.5833C75.7461 16.8629 74.4622 19.2697 74.4483 21.8746C74.4483 26.0332 77.3229 29.3387 81.1186 29.3387C84.998 29.4301 87.789 26.1246 87.789 21.966ZM120.582 28.5771L124.615 26.2921C125.704 28.4095 127.797 29.6891 129.96 29.5977C132.514 29.5977 133.756 28.1505 133.756 26.5511C133.756 24.6927 131.355 24.3423 128.634 23.7482C125.062 22.8952 121.35 21.6308 121.35 16.8781C121.35 13.2375 124.532 9.91667 129.5 9.91667C133.379 9.91667 136.323 11.6075 137.956 14.319L134.23 16.5278C133.184 14.8065 131.383 13.8163 129.5 13.8925C127.099 13.8925 125.857 15.172 125.857 16.6039C125.857 18.2186 127.797 18.7213 130.825 19.4068C134.244 20.2599 138.193 21.448 138.193 26.2769C138.193 29.4149 135.64 33.741 129.667 33.6496C125.397 33.9238 122.299 31.974 120.582 28.5771ZM150.446 23.3217L146.873 27.4803V33.4973H142.38V0H146.873V21.8746L156.334 10.5108H161.763L153.543 20.3513L162 33.4973H156.962L150.446 23.3217ZM56.5304 10.0995C51.2556 10.0995 46.7622 13.8315 46.7622 20.1075V33.5125H51.3393V20.7016C51.3393 16.9695 53.279 14.6846 56.684 14.6846C60.0191 14.6846 61.7216 16.9695 61.7216 20.7016V33.5125H66.2987V20.1075C66.2987 13.8163 61.889 10.0995 56.5304 10.0995Z" fill="white"/>
</svg>
