<svg xmlns="http://www.w3.org/2000/svg" viewBox="0 0 40 40"><path d="M16.72,19.38A3.9,3.9,0,0,0,12.89,24,3.91,3.91,0,0,0,20,25.45a3.9,3.9,0,0,0,.66-2.17,4,4,0,0,0-1.15-2.76A3.91,3.91,0,0,0,16.72,19.38Z" style="fill:CurrentColor"/><path d="M20,0C4,0,0,4,0,20S4,40,20,40s20-4,20-20S36,0,20,0Zm2.13,28.69a7.65,7.65,0,0,1-9.67,1,7.77,7.77,0,0,1-2.82-3.44,7.69,7.69,0,0,1-.43-4.42,7.59,7.59,0,0,1,2.09-3.92A7.67,7.67,0,0,1,23.09,19a7.64,7.64,0,0,1-1,9.66Zm8.5,1.94H26.88V13.13H9.38V9.38H30.63Z" style="fill:CurrentColor"/></svg>