<svg width="117" height="77" viewBox="0 0 117 77" fill="none" xmlns="http://www.w3.org/2000/svg">
<rect y="16" width="5" height="11" rx="2.5" fill="white"/>
<rect x="14" y="9" width="5" height="18" rx="2.5" fill="white"/>
<rect x="28" width="5" height="32" rx="2.5" fill="white"/>
<rect x="42" y="9" width="5" height="18" rx="2.5" fill="white"/>
<rect x="56" y="16" width="5" height="11" rx="2.5" fill="white"/>
<rect x="69" y="9" width="6" height="18" rx="3" fill="white"/>
<rect x="83" width="6" height="32" rx="3" fill="white"/>
<rect x="97" y="9" width="6" height="18" rx="3" fill="white"/>
<rect x="111" y="16" width="6" height="11" rx="3" fill="white"/>
<path d="M36.9318 40.6364V61H34.4659V40.6364H36.9318Z" fill="white"/>
<path d="M19.3352 39.5682C17.392 39.5682 15.7188 40.027 14.3153 40.9446C12.9119 41.8622 11.8324 43.1262 11.0767 44.7365C10.321 46.3468 9.94318 48.1866 9.94318 50.2557C9.94318 52.3608 10.33 54.2185 11.1037 55.8288C11.8864 57.4482 12.9749 58.7121 14.3693 59.6207C15.7727 60.5384 17.41 60.9972 19.2812 60.9972C20.7386 60.9972 22.0521 60.7273 23.2216 60.1875C24.3911 59.6477 25.3492 58.892 26.0959 57.9205C26.8426 56.9489 27.3059 55.8153 27.4858 54.5199H24.3011C24.0582 55.4645 23.5185 56.3011 22.6818 57.0298C21.8542 57.7675 20.7386 58.1364 19.3352 58.1364C18.0938 58.1364 17.0052 57.8125 16.0696 57.1648C15.143 56.526 14.4188 55.6219 13.897 54.4524C13.3842 53.2919 13.1278 51.929 13.1278 50.3636C13.1278 48.7623 13.3797 47.3679 13.8835 46.1804C14.3963 44.9929 15.116 44.0708 16.0426 43.4141C16.9782 42.7573 18.0758 42.429 19.3352 42.429C20.1629 42.429 20.9141 42.5729 21.5888 42.8608C22.2635 43.1487 22.8348 43.5625 23.3026 44.1023C23.7704 44.642 24.1032 45.2898 24.3011 46.0455H27.4858C27.3059 44.822 26.8606 43.7199 26.1499 42.7393C25.4482 41.7678 24.517 40.9941 23.3565 40.4183C22.205 39.8516 20.8646 39.5682 19.3352 39.5682Z" fill="white"/>
<path d="M73.3352 39.5682C71.392 39.5682 69.7188 40.027 68.3153 40.9446C66.9119 41.8622 65.8324 43.1262 65.0767 44.7365C64.321 46.3468 63.9432 48.1866 63.9432 50.2557C63.9432 52.3608 64.33 54.2185 65.1037 55.8288C65.8864 57.4482 66.9749 58.7121 68.3693 59.6207C69.7727 60.5384 71.41 60.9972 73.2812 60.9972C74.7386 60.9972 76.0521 60.7273 77.2216 60.1875C78.3911 59.6477 79.3492 58.892 80.0959 57.9205C80.8426 56.9489 81.3059 55.8153 81.4858 54.5199H78.3011C78.0582 55.4645 77.5185 56.3011 76.6818 57.0298C75.8542 57.7675 74.7386 58.1364 73.3352 58.1364C72.0938 58.1364 71.0052 57.8125 70.0696 57.1648C69.143 56.526 68.4188 55.6219 67.897 54.4524C67.3842 53.2919 67.1278 51.929 67.1278 50.3636C67.1278 48.7623 67.3797 47.3679 67.8835 46.1804C68.3963 44.9929 69.116 44.0708 70.0426 43.4141C70.9782 42.7573 72.0758 42.429 73.3352 42.429C74.1629 42.429 74.9141 42.5729 75.5888 42.8608C76.2635 43.1487 76.8348 43.5625 77.3026 44.1023C77.7704 44.642 78.1032 45.2898 78.3011 46.0455H81.4858C81.3059 44.822 80.8606 43.7199 80.1499 42.7393C79.4482 41.7678 78.517 40.9941 77.3565 40.4183C76.205 39.8516 74.8646 39.5682 73.3352 39.5682Z" fill="white"/>
<path d="M56.6023 45.7273C56.483 44.7197 55.9991 43.9375 55.1506 43.3807C54.3021 42.8239 53.2614 42.5455 52.0284 42.5455C51.1269 42.5455 50.3381 42.6913 49.6619 42.983C48.9924 43.2746 48.4688 43.6757 48.0909 44.1861C47.7197 44.6965 47.5341 45.2765 47.5341 45.9261C47.5341 46.4697 47.6634 46.937 47.9219 47.3281C48.187 47.7126 48.5251 48.0341 48.9361 48.2926C49.3471 48.5445 49.7779 48.7533 50.2287 48.919C50.6795 49.0781 51.0938 49.2074 51.4716 49.3068L53.5398 49.8636C54.0701 50.0028 54.66 50.1951 55.3097 50.4403C55.9659 50.6856 56.5923 51.0204 57.1889 51.4446C57.7921 51.8622 58.2893 52.3991 58.6804 53.0554C59.0715 53.7116 59.267 54.517 59.267 55.4716C59.267 56.572 58.9787 57.5663 58.402 58.4545C57.8319 59.3428 56.9967 60.0488 55.8963 60.5724C54.8026 61.0961 53.4735 61.358 51.9091 61.358C50.4508 61.358 49.188 61.1226 48.1207 60.652C47.0601 60.1813 46.2249 59.5251 45.6151 58.6832C45.0118 57.8414 44.6705 56.8636 44.5909 55.75H47.1364C47.2027 56.5189 47.4612 57.1553 47.9119 57.6591C48.3693 58.1562 48.946 58.5275 49.642 58.7727C50.3447 59.0114 51.1004 59.1307 51.9091 59.1307C52.8504 59.1307 53.6955 58.9782 54.4446 58.6733C55.1937 58.3617 55.7869 57.9309 56.2244 57.3807C56.6619 56.8239 56.8807 56.1742 56.8807 55.4318C56.8807 54.7557 56.6918 54.2055 56.3139 53.7812C55.9361 53.357 55.4389 53.0123 54.8224 52.7472C54.206 52.482 53.5398 52.25 52.8239 52.0511L50.3182 51.3352C48.7273 50.8778 47.4678 50.2249 46.5398 49.3764C45.6117 48.5279 45.1477 47.4176 45.1477 46.0455C45.1477 44.9053 45.456 43.911 46.0724 43.0625C46.6955 42.2074 47.5308 41.5445 48.5781 41.0739C49.6321 40.5966 50.8087 40.358 52.108 40.358C53.4205 40.358 54.5871 40.5933 55.608 41.0639C56.6288 41.5279 57.4375 42.1643 58.0341 42.973C58.6373 43.7817 58.9555 44.6998 58.9886 45.7273H56.6023Z" fill="white"/>
<path d="M95.3352 61.4318C93.464 61.4318 91.8222 60.9865 90.4098 60.0959C89.0064 59.2053 87.9089 57.9593 87.1172 56.358C86.3345 54.7566 85.9432 52.8854 85.9432 50.7443C85.9432 48.5852 86.3345 46.7005 87.1172 45.0902C87.9089 43.4799 89.0064 42.2294 90.4098 41.3388C91.8222 40.4482 93.464 40.0028 95.3352 40.0028C97.2064 40.0028 98.8438 40.4482 100.247 41.3388C101.66 42.2294 102.757 43.4799 103.54 45.0902C104.331 46.7005 104.727 48.5852 104.727 50.7443C104.727 52.8854 104.331 54.7566 103.54 56.358C102.757 57.9593 101.66 59.2053 100.247 60.0959C98.8438 60.9865 97.2064 61.4318 95.3352 61.4318ZM95.3352 58.571C96.7566 58.571 97.9261 58.2067 98.8438 57.478C99.7614 56.7493 100.441 55.7912 100.881 54.6037C101.322 53.4162 101.543 52.1297 101.543 50.7443C101.543 49.3589 101.322 48.0679 100.881 46.8714C100.441 45.675 99.7614 44.7079 98.8438 43.9702C97.9261 43.2325 96.7566 42.8636 95.3352 42.8636C93.9138 42.8636 92.7443 43.2325 91.8267 43.9702C90.9091 44.7079 90.2299 45.675 89.7891 46.8714C89.3482 48.0679 89.1278 49.3589 89.1278 50.7443C89.1278 52.1297 89.3482 53.4162 89.7891 54.6037C90.2299 55.7912 90.9091 56.7493 91.8267 57.478C92.7443 58.2067 93.9138 58.571 95.3352 58.571Z" fill="white"/>
</svg>
