<svg width="168" height="47" viewBox="0 0 168 47" fill="none" xmlns="http://www.w3.org/2000/svg">
<path d="M5.04 33.514V12.094L1.428 10.624L1.68 9.7C8.008 9.476 11.984 9.364 13.608 9.364C22.96 9.364 27.636 14.152 27.636 23.728C27.636 28.712 26.306 32.226 23.646 34.27C21.014 36.314 16.842 37.336 11.13 37.336C10.43 37.336 7.28 37.224 1.68 37L1.428 36.076L3.738 35.11C4.242 34.914 4.578 34.704 4.746 34.48C4.942 34.256 5.04 33.934 5.04 33.514ZM14.238 11.674H9.744C8.988 11.674 8.61 12.024 8.61 12.724V34.774C9.702 34.886 11.102 34.942 12.81 34.942C16.506 34.942 19.278 34.34 21.126 33.136C22.862 31.008 23.73 28.012 23.73 24.148C23.73 20.256 22.918 17.204 21.294 14.992C19.67 12.78 17.318 11.674 14.238 11.674ZM34.8203 27.088C34.8203 32.128 36.7383 34.648 40.5743 34.648C41.9743 34.648 43.1783 34.438 44.1863 34.018C45.2223 32.674 45.7403 30.672 45.7403 28.012C45.7403 22.972 43.8223 20.452 39.9863 20.452C38.5863 20.452 37.3823 20.662 36.3743 21.082C35.3383 22.426 34.8203 24.428 34.8203 27.088ZM40.0283 37.336C37.4243 37.336 35.3103 36.482 33.6863 34.774C32.0623 33.066 31.2503 30.658 31.2503 27.55C31.2503 24.414 32.1463 22.006 33.9383 20.326C35.7303 18.618 37.9283 17.764 40.5323 17.764C43.1363 17.764 45.2503 18.618 46.8743 20.326C48.4983 22.034 49.3103 24.456 49.3103 27.592C49.3103 30.7 48.4143 33.108 46.6223 34.816C44.8303 36.496 42.6323 37.336 40.0283 37.336ZM64.0044 20.62C63.3884 20.452 62.4084 20.368 61.0644 20.368C59.7204 20.368 58.5724 20.606 57.6204 21.082C56.5564 22.426 56.0244 24.344 56.0244 26.836C56.0244 29.328 56.6124 31.26 57.7884 32.632C58.9644 33.976 60.4764 34.648 62.3244 34.648C64.1724 34.648 65.8944 34.284 67.4904 33.556L68.0784 34.648C67.7424 34.984 67.3364 35.334 66.8604 35.698C66.3844 36.034 65.6144 36.398 64.5504 36.79C63.5144 37.154 62.4224 37.336 61.2744 37.336C58.6704 37.336 56.5564 36.482 54.9324 34.774C53.3084 33.038 52.4964 30.63 52.4964 27.55C52.4964 24.47 53.3784 22.076 55.1424 20.368C56.9344 18.632 59.1044 17.764 61.6524 17.764C62.9124 17.764 64.0324 18.002 65.0124 18.478C65.9924 18.954 66.6504 19.374 66.9864 19.738C67.3224 20.102 67.5884 20.466 67.7844 20.83L65.3484 24.106L64.3404 23.812L64.0044 20.62ZM78.6453 37.336C74.6133 37.336 72.5973 35.194 72.5973 30.91V21.124L69.6573 20.662L69.4053 19.738L75.1593 17.764L75.9993 18.1V30.406C75.9993 31.834 76.3213 32.87 76.9653 33.514C77.6373 34.13 78.7013 34.438 80.1573 34.438C81.6133 34.438 83.0693 34.256 84.5253 33.892V21.124L81.5853 20.662L81.3333 19.738L87.0873 17.764L87.9273 18.1V34.732L90.8253 35.74L90.5733 36.664L87.0033 37.336L86.1633 37L84.8193 35.824L84.6093 35.74C82.6773 36.804 80.6893 37.336 78.6453 37.336ZM106.793 12.724C105.869 12.22 104.427 11.968 102.467 11.968C100.535 11.968 98.9529 12.486 97.7209 13.522C97.3849 14.054 97.2169 14.824 97.2169 15.832C97.2169 17.988 98.3649 19.5 100.661 20.368L106.121 22.468C109.705 23.84 111.497 26.318 111.497 29.902C111.497 32.338 110.643 34.186 108.935 35.446C107.227 36.706 105.015 37.336 102.299 37.336C98.5469 37.336 95.4529 36.188 93.0169 33.892L95.7049 29.314L96.7129 29.608L97.3429 33.64C98.3789 34.368 99.8769 34.732 101.837 34.732C106.009 34.732 108.095 33.318 108.095 30.49C108.095 29.342 107.731 28.404 107.003 27.676C106.275 26.948 105.141 26.29 103.601 25.702L98.7709 23.854C95.4949 22.594 93.8569 20.326 93.8569 17.05C93.8569 14.586 94.7249 12.696 96.4609 11.38C98.1969 10.036 100.409 9.364 103.097 9.364C106.373 9.364 109.005 10.512 110.993 12.808L108.011 16.966L107.003 16.672L106.793 12.724ZM117.239 33.682V21.124L114.299 20.662L114.047 19.738L119.801 17.764L120.641 18.1V34.732L123.959 36.076L123.707 37H114.299L114.047 36.076L115.937 35.278C116.441 35.082 116.777 34.872 116.945 34.648C117.141 34.424 117.239 34.102 117.239 33.682ZM118.709 13.396C118.065 13.396 117.519 13.186 117.071 12.766C116.651 12.318 116.441 11.772 116.441 11.128C116.441 10.456 116.651 9.896 117.071 9.448C117.519 9 118.065 8.776 118.709 8.776C119.381 8.776 119.941 9 120.389 9.448C120.837 9.896 121.061 10.456 121.061 11.128C121.061 11.772 120.837 12.318 120.389 12.766C119.941 13.186 119.381 13.396 118.709 13.396ZM139.057 19.948C140.205 21.18 140.779 22.79 140.779 24.778C140.779 26.738 140.079 28.362 138.679 29.65C137.307 30.91 135.529 31.54 133.345 31.54C132.785 31.54 132.253 31.498 131.749 31.414C130.993 32.142 130.615 32.87 130.615 33.598C130.615 33.85 130.811 34.018 131.203 34.102C131.595 34.158 133.359 34.326 136.495 34.606C138.259 34.774 139.715 35.306 140.863 36.202C142.039 37.098 142.627 38.498 142.627 40.402C142.627 42.306 141.787 43.874 140.107 45.106C138.455 46.366 136.285 46.996 133.597 46.996C130.937 46.996 128.879 46.492 127.423 45.484C125.967 44.504 125.239 43.188 125.239 41.536C125.239 39.52 126.275 37.798 128.347 36.37C127.899 35.866 127.675 35.32 127.675 34.732C127.675 34.116 127.871 33.444 128.263 32.716C128.655 31.96 129.159 31.316 129.775 30.784C128.599 30.224 127.675 29.412 127.003 28.348C126.359 27.284 126.037 26.052 126.037 24.652C126.037 22.58 126.723 20.9 128.095 19.612C129.467 18.324 131.231 17.68 133.387 17.68C134.955 17.68 136.341 18.044 137.545 18.772C138.693 17.344 139.659 16.336 140.443 15.748L142.249 17.848L141.997 18.478C140.401 19.262 139.421 19.752 139.057 19.948ZM130.027 37.336C128.991 38.288 128.473 39.394 128.473 40.654C128.473 41.942 128.991 42.922 130.027 43.594C131.091 44.266 132.519 44.602 134.311 44.602C136.131 44.602 137.671 44.224 138.931 43.468C139.379 42.824 139.603 41.942 139.603 40.822C139.603 39.702 139.253 38.96 138.553 38.596C137.853 38.232 136.817 37.98 135.445 37.84C133.569 37.644 132.085 37.546 130.993 37.546C130.713 37.518 130.391 37.448 130.027 37.336ZM129.313 24.694C129.313 26.066 129.677 27.144 130.405 27.928C131.133 28.684 132.141 29.062 133.429 29.062C134.745 29.062 135.781 28.838 136.537 28.39C136.761 28.11 136.957 27.578 137.125 26.794C137.321 26.01 137.419 25.254 137.419 24.526C137.419 23.154 137.055 22.09 136.327 21.334C135.599 20.55 134.577 20.158 133.261 20.158C131.973 20.158 130.951 20.382 130.195 20.83C129.971 21.11 129.761 21.642 129.565 22.426C129.397 23.21 129.313 23.966 129.313 24.694ZM159.314 24.694C159.314 23.266 158.978 22.244 158.306 21.628C157.662 20.984 156.612 20.662 155.156 20.662C153.7 20.662 152.244 20.844 150.788 21.208V34.732L154.106 36.076L153.854 37H144.446L144.194 36.076L146.084 35.278C146.588 35.082 146.924 34.872 147.092 34.648C147.288 34.424 147.386 34.102 147.386 33.682V21.124L144.446 20.662L144.194 19.738L149.612 17.764L150.452 18.1L150.536 19.276L150.704 19.36C152.636 18.296 154.624 17.764 156.668 17.764C160.7 17.764 162.716 19.906 162.716 24.19V34.732L166.034 36.076L165.782 37H156.374L156.122 36.076L158.012 35.278C158.516 35.082 158.852 34.872 159.02 34.648C159.216 34.424 159.314 34.102 159.314 33.682V24.694Z" fill="white"/>
<rect x="161.5" y="8.5" width="6" height="6" rx="3" fill="none"/>
<rect x="161.5" y="8.5" width="6" height="6" rx="3" stroke="white"/>
<path d="M164.49 11.654H164.316V12.329L164.565 12.434L164.547 12.5H163.821L163.803 12.434L163.968 12.365C164.004 12.351 164.028 12.336 164.04 12.32C164.054 12.304 164.061 12.281 164.061 12.251V10.721L163.803 10.616L163.821 10.55C164.151 10.534 164.377 10.526 164.499 10.526C165.017 10.526 165.276 10.712 165.276 11.084C165.276 11.378 165.118 11.56 164.802 11.63C164.824 11.65 164.844 11.679 164.862 11.717C164.998 11.995 165.099 12.175 165.165 12.257C165.231 12.339 165.333 12.395 165.471 12.425L165.45 12.5L165.114 12.524C165.006 12.436 164.924 12.349 164.868 12.263C164.814 12.177 164.724 12.001 164.598 11.735C164.572 11.681 164.536 11.654 164.49 11.654ZM164.316 10.766V11.501H164.511C164.659 11.501 164.775 11.484 164.859 11.45C164.903 11.418 164.937 11.381 164.961 11.339C164.985 11.295 164.997 11.231 164.997 11.147C164.997 11.017 164.962 10.909 164.892 10.823C164.824 10.735 164.711 10.691 164.553 10.691H164.397C164.343 10.691 164.316 10.716 164.316 10.766Z" fill="white"/>
</svg>
