<?xml version="1.0" encoding="iso-8859-1"?>
<!-- Uploaded to: SVG Repo, www.svgrepo.com, Generator: SVG Repo Mixer Tools -->
<!DOCTYPE svg PUBLIC "-//W3C//DTD SVG 1.1//EN" "http://www.w3.org/Graphics/SVG/1.1/DTD/svg11.dtd">
<svg height="800px" width="800px" version="1.1" id="Capa_1" xmlns="http://www.w3.org/2000/svg" xmlns:xlink="http://www.w3.org/1999/xlink" 
	 viewBox="0 0 59.191 59.191" xml:space="preserve">
<g>
	<path style="fill:#1D1D1B;" d="M56.457,8.558c0.216-0.447,0.363-0.912,0.411-1.289c0.158-1.228-0.384-2.459-1.421-3.153
		c-0.995-0.665-2.265-0.712-3.226,0.039c-0.118,0.092-0.226,0.195-0.327,0.303c-0.073-0.179-0.154-0.344-0.237-0.464
		c-0.573-0.83-1.663-1.287-2.637-0.935c-0.893,0.323-1.382,1.194-1.427,2.079c-3.981-2.843-9.395-2.968-12.623,1.309
		c-1.356,1.797-2.097,3.936-2.426,6.213c-0.062,0.021-0.12,0.055-0.182,0.074c-0.005-0.012-0.003-0.023-0.008-0.035
		c-1.047-2.338-2.929-4.202-5.333-5.132c-1.692-0.654-4.308-0.832-3.862,1.756c0.702,4.073,5.694,5.612,9.256,4.41
		c-0.146,1.666-0.085,3.387,0.107,5.089c-0.145,0.225-0.162,0.511,0.092,0.738c0.002,0.002,0.005,0.003,0.007,0.005
		c0.33,2.431,0.906,4.804,1.55,6.892c-1.275,0.063-2.552,0.105-3.835,0.104c-1.404-0.001-2.803-0.062-4.202-0.14
		c1.469-4.651,0.275-10.522-3.645-13.682c-2.64-2.128-5.877-2.057-8.085-0.07c-0.203-0.642-0.618-1.21-1.27-1.541
		c-1.045-0.53-2.282-0.267-3.167,0.449C9.496,9.8,7.269,8.502,5.551,9.66c-0.941,0.635-1.393,1.814-1.327,2.924
		c-1.181-0.393-2.594-0.061-3.368,1.031c-0.778,1.097-0.517,2.949,0.436,3.953c-1.056,0.734-1.513,2.146-1.189,3.382
		c0.328,1.252,1.462,2.102,2.746,2.083c-0.035,0.103-0.07,0.205-0.095,0.314c-0.276,1.207,0.149,2.557,1.222,3.24
		c0.944,0.601,2.234,0.573,3.204,0.045c0.407-0.221,0.832-0.608,1.121-1.058c0.642,1.136,2.025,1.881,3.307,1.156
		c0.807-0.457,1.268-1.399,1.297-2.316c1.419,0.865,3.249,0.79,4.393-1.029c0.76-1.208,0.588-2.713-0.528-3.629
		c-0.064-0.052-0.147-0.093-0.218-0.142c1.505-0.364,2.712-1.892,2.055-3.693c-0.46-1.262-1.671-2.14-3.034-1.976
		c-0.37,0.045-0.746,0.191-1.103,0.385c0.05-0.218,0.069-0.441,0.073-0.665c2.576-1.978,6.599-0.438,8.491,1.873
		c0.325,0.397,0.608,0.813,0.86,1.241c-2.997,0.156-5.446,2.905-4.973,6.025c0.041,0.271,0.385,0.52,0.654,0.498
		c2.364-0.193,5.038-2.164,5.131-4.719c0.859,2.453,0.845,5.185,0.359,7.774c-2.83-0.177-5.655-0.408-8.49-0.453
		c-0.549-0.3-1.432,0.139-1.237,0.938c0.462,1.892,0.691,3.844,0.59,5.79c-0.011,0.212,0.094,0.367,0.241,0.472
		c-0.011,0.178,0.074,0.349,0.304,0.387c0.999,0.163,2.021,0.288,3.05,0.402c0.393,6.54,1.962,13.36,4.299,19.459
		c0.162,0.422,0.574,0.532,0.898,0.421c0.488,1.731,3.252,2.198,4.93,2.382c3.875,0.425,7.659-0.59,10.987-2.547
		c0.065-0.038,0.102-0.089,0.151-0.134c0.404-0.047,0.799-0.325,0.853-0.844c0.343-3.282,0.587-6.578,0.801-9.87
		c0.114-1.76-0.498-8.87,0.902-9.957c0.065-0.05,0.092-0.112,0.101-0.176c0.77-0.159,1.54-0.318,2.29-0.497
		c0.344-0.082,0.486-0.402,0.459-0.704c0.014-0.035,0.037-0.062,0.046-0.103c0.363-1.673,0.721-4.135-0.355-5.62
		c-0.359-0.495-1.014-0.459-1.307-0.033c-3.085,0.233-6.151,0.528-9.228,0.714c-0.602-1.965-1.098-4.03-1.392-6.118
		c1.234,0.359,2.713,0.225,3.884,0.01c2.069-0.38,3.844-1.433,5.32-2.907c0.287-0.287,0.274-0.9-0.14-1.086
		c-3.194-1.431-6.945-0.629-9.028,2.153c-0.078-0.003-0.156-0.005-0.234-0.006c-0.169-2.241-0.067-4.485,0.487-6.645
		c1.607-6.271,6.766-8.413,12.265-6.161c-0.887,0.027-1.784,0.433-2.248,1.209c-0.541,0.904-0.395,2.079,0.244,2.891
		c0.145,0.184,0.309,0.332,0.48,0.462c-1.268,0.648-2.196,1.946-2,3.415c0.25,1.868,2.266,2.974,3.968,2.691
		c0.177,0.603,0.523,1.151,1.058,1.508c1.408,0.942,2.891,0.269,3.665-0.917c0.213,0.38,0.488,0.721,0.772,0.967
		c1.006,0.873,2.535,1.205,3.656,0.347c1.24-0.948,1.297-2.714,0.557-3.951c0.862-0.141,1.687-0.581,2.15-1.334
		C59.926,11.112,58.392,8.69,56.457,8.558z M26.384,10.47c1.11,0.776,2.246,1.73,3.436,2.47c-1.73-0.182-3.388-1.027-4.462-2.466
		c-0.509-0.682-1.342-1.63,0.236-1.799c0.685-0.073,1.731,0.615,2.306,0.972c1.101,0.686,1.942,1.608,2.601,2.678
		c-1.206-0.865-2.606-1.566-3.842-2.326C26.356,9.813,26.101,10.272,26.384,10.47z M10.686,12.756
		c0.467-0.417,1.232-0.696,1.845-0.459c0.58,0.224,0.908,0.743,1.016,1.321c-0.172,0.229-0.337,0.468-0.486,0.727
		c-0.171,0.296,0.168,0.538,0.412,0.411c-0.078,0.246-0.188,0.479-0.347,0.672c-0.716-0.904-1.695-1.604-2.822-1.891
		c-0.025-0.006-0.052-0.009-0.078-0.015C10.317,13.251,10.43,12.985,10.686,12.756z M6.244,11.145c1.038-1.1,2.718,0.152,2.915,1.41
		c-0.164,0.282-0.298,0.583-0.343,0.881c-0.752,0.068-1.522,0.306-2.224,0.668C6.052,13.198,5.322,12.122,6.244,11.145z
		 M2.101,14.449c0.398-0.853,1.511-1.054,2.368-0.762c0.204,0.506,0.533,0.951,1.002,1.176c-0.721,0.614-1.268,1.385-1.454,2.27
		c-0.247-0.066-0.497-0.101-0.748-0.115C2.419,16.454,1.588,15.548,2.101,14.449z M8.049,23.581
		c-0.246-0.047-0.513,0.035-0.662,0.273c-0.329,0.525-0.332,1.006-0.961,1.306c-0.463,0.221-1.071,0.313-1.53,0.031
		c-0.893-0.551-0.764-1.859-0.254-2.773c0.267-0.199,0.482-0.443,0.606-0.724c0.032-0.024,0.061-0.059,0.094-0.08
		c0.268-0.169,0.212-0.572-0.014-0.704c-0.005-0.027,0.001-0.051-0.006-0.078c-0.087-0.346-0.543-0.555-0.852-0.347
		c-0.55,0.37-0.807,0.944-1.547,1.005c-0.743,0.061-1.242-0.449-1.38-1.148c-0.194-0.982,0.321-1.702,1.07-2.094
		c0.152,0.017,0.309,0.022,0.474,0.003c0.222-0.025,0.399-0.146,0.504-0.306c0.121-0.016,0.243-0.033,0.365-0.034
		c0.003,0.088-0.003,0.173,0.006,0.262c0.052,0.476,0.654,0.704,0.934,0.253c0.074-0.119,0.147-0.239,0.22-0.359
		c0.074-0.037,0.113-0.116,0.125-0.204c0.013-0.021,0.026-0.042,0.039-0.063c-0.637,2.035,0.137,4.309,2.25,5.306
		c0.2,0.094,0.405,0.165,0.612,0.224C8.103,23.413,8.077,23.497,8.049,23.581z M11.135,25.485c-1.16,1.053-2.705-0.801-2.262-2.014
		c0.762,0.078,1.535-0.046,2.253-0.332c0.198,0.235,0.397,0.461,0.443,0.847C11.629,24.495,11.533,25.124,11.135,25.485z
		 M11.309,21.338c-0.148-0.024-0.307,0.058-0.351,0.212c-0.706,0.392-1.524,0.574-2.309,0.418c-2.128-0.424-3.311-3.245-2.366-5.139
		c0.074-0.147,0.008-0.28-0.098-0.342c0.699-0.863,1.564-1.503,2.932-1.519c1.984-0.023,3.799,1.897,3.68,3.881
		C12.736,19.866,12.134,20.758,11.309,21.338z M15.925,23.122c-1.017,1.021-2.363,0.756-3.318-0.042
		c-0.095-0.201-0.204-0.397-0.34-0.564c0.743-0.533,1.336-1.259,1.691-2.097c0.753-0.154,1.348-0.28,1.988,0.278
		C16.725,21.375,16.625,22.419,15.925,23.122z M15.657,15.176c0.847-0.077,1.476,0.536,1.688,1.313
		c0.498,1.821-1.681,2.829-3.048,1.812C14.297,18.3,14.296,18.3,14.295,18.3c-0.041-0.527-0.179-1.038-0.38-1.528
		C14.232,15.97,14.702,15.263,15.657,15.176z M23.65,18.006c-0.07,0.267-0.154,0.527-0.246,0.781
		c-0.552,0.351-1.154,0.603-1.816,0.677c-0.252,0.028-0.266,0.412,0,0.404c0.513-0.015,1.01-0.11,1.47-0.294
		c-0.575,1.123-1.449,1.993-2.761,2.273c0.269-2.088,1.914-3.934,3.99-4.29c0.018,0.038,0.04,0.075,0.057,0.114
		C24.077,17.562,23.745,17.642,23.65,18.006z M40.813,37.444c-0.532,4.855-0.788,9.78-0.943,14.664
		c-0.031,0.013-0.06,0.011-0.091,0.027c-2.319,1.214-4.817,2.017-7.44,2.198c-1.361,0.094-7.037,0.392-6.898-1.762
		c0.018-0.283-0.277-0.395-0.492-0.309c-1.52-6.087-2.981-12.202-4.54-18.276c6.99,0.669,14.517,0.226,21.438-1.049
		C40.88,34.019,40.973,35.989,40.813,37.444z M44.487,26.987c0.076,0.499,0.201,1,0.269,1.488c0.114,0.809,0.119,1.617,0.062,2.429
		c-4.574,0.389-9.106,1.083-13.7,1.331c-4.645,0.251-9.299,0.1-13.94,0.383c0.307-1.883,0.296-3.685-0.09-5.53
		C25.733,29.231,35.863,28.791,44.487,26.987z M41.289,17.078c-1.132,0.776-2.403,1.288-3.787,1.516
		c-0.198,0.033-0.395,0.047-0.59,0.056c0.825-0.097,1.63-0.334,2.307-0.797c0.303-0.207,0.127-0.753-0.264-0.626
		c-1.141,0.37-2.175,0.71-3.348,0.76C37.275,16.888,39.343,16.503,41.289,17.078z M52.926,5.234
		c0.716-0.577,1.618-0.323,2.174,0.353c0.557,0.678,0.557,1.57,0.152,2.325c-0.049,0.091-0.113,0.164-0.172,0.243
		c-0.684-0.907-1.703-1.535-2.894-1.628C52.276,6.059,52.661,5.448,52.926,5.234z M49.439,4.383c0.431-0.222,0.91,0.074,1.189,0.406
		C50.806,5,50.921,5.248,50.931,5.526c0.01,0.292-0.083,0.461,0.077,0.739c0.025,0.044,0.074,0.064,0.112,0.096
		c-0.612,0.104-1.181,0.333-1.679,0.67c0.126-0.18,0.144-0.416-0.081-0.598C48.801,5.98,48.711,4.757,49.439,4.383z M45.412,7.307
		c0.31-0.386,0.86-0.552,1.338-0.54c0.662,0.017,0.951,0.366,1.426,0.749c0.218,0.176,0.491,0.151,0.661,0.003
		c-0.633,0.608-1.101,1.396-1.323,2.268c-0.406-0.088-0.849-0.079-1.279-0.009C45.41,9.259,44.782,8.09,45.412,7.307z
		 M46.862,14.784c-0.01,0.061-0.012,0.123-0.019,0.184c-1.055,0.053-2.208-0.499-2.34-1.564c-0.111-0.9,0.673-1.661,1.443-1.969
		c0.512-0.205,0.981-0.163,1.461-0.094c0.081,0.625,0.311,1.189,0.659,1.672C47.431,13.305,46.967,14.151,46.862,14.784z
		 M51.358,15.023c-0.028,0.095-0.049,0.192-0.059,0.291c-0.134,0.387-0.38,0.74-0.706,1.016c-0.509,0.431-1.325,0.702-1.861,0.169
		c-0.218-0.217-0.345-0.518-0.405-0.831c0.244-0.212,0.458-0.477,0.627-0.799c0.132-0.251-0.028-0.534-0.247-0.629
		c0.091-0.105,0.184-0.208,0.269-0.323c0.687,0.495,1.531,0.805,2.431,0.862C51.404,14.862,51.373,14.941,51.358,15.023z
		 M51.579,13.222c-1.603-0.015-2.481-0.998-2.707-2.148c0.017-0.072,0.015-0.147-0.015-0.221c-0.007-0.018-0.019-0.028-0.027-0.045
		c-0.162-1.532,0.792-3.251,2.758-3.385c0.168-0.011,0.294-0.084,0.385-0.184c1.095,0.336,1.824,1.202,2.149,2.173
		c-0.008,0.021-0.022,0.035-0.03,0.056c-0.068,0.201,0.024,0.376,0.169,0.492c0.125,0.728,0.012,1.463-0.333,2.055
		c-0.179,0.085-0.312,0.262-0.359,0.468C53.121,12.935,52.471,13.23,51.579,13.222z M55.446,17.046
		c-0.651,0.532-1.522,0.279-2.097-0.236c-0.692-0.62-0.65-1.293-0.711-2.133c0.664-0.138,1.285-0.402,1.803-0.799
		c0.306,0.175,0.65,0.279,0.992,0.347C56.109,15.021,56.294,16.352,55.446,17.046z M57.496,12.346
		c-0.367,0.397-0.968,0.562-1.496,0.52c-0.209-0.017-0.379-0.077-0.538-0.153c0.3-0.523,0.493-1.12,0.517-1.79
		c0.016-0.472-0.062-0.93-0.192-1.369c0.027-0.027,0.048-0.064,0.074-0.093C57.133,9.611,58.578,11.178,57.496,12.346z"/>
</g>
</svg>