<svg width="211" height="41" viewBox="0 0 211 41" fill="none" xmlns="http://www.w3.org/2000/svg">
<path d="M74.5099 23.6031L73.2284 26.8098H73.1573C72.9294 26.0599 72.5592 24.9737 71.9612 23.6031L65.198 8.19004H58.5913V32.7449H62.9482V17.668V14.3191L62.7916 12.7545H62.8628L63.4609 14.8751L71.5768 32.7449H74.6523L82.6828 14.6682L83.2096 12.7545H83.2808L83.053 17.1896V32.7449H87.709V8.19004H81.3301L74.5099 23.6031ZM92.1656 15.069H96.6792V32.6673H92.1656V15.069ZM94.5007 7.71162C93.7746 7.72455 93.0911 7.9573 92.5501 8.39693C92.0232 8.87535 91.7242 9.41843 91.7242 10.1037C91.7242 10.7891 92.0232 11.3321 92.5501 11.8106C93.0769 12.289 93.6749 12.4959 94.5007 12.4959C95.3266 12.4959 95.9246 12.2243 96.4514 11.8106C96.9782 11.3321 97.2772 10.7891 97.2772 10.1037C97.2772 9.41843 96.9782 8.87535 96.4514 8.39693C95.9246 7.91851 95.2411 7.71162 94.5007 7.71162ZM112.826 14.9397C112 14.7975 111.103 14.6682 110.277 14.6682C108.255 14.6682 106.29 15.0819 104.795 15.8966C103.243 16.6724 101.976 17.862 101.193 19.3102C99.5127 22.323 99.4842 25.8918 101.122 28.9304C101.947 30.301 103.072 31.3225 104.582 32.0725C106.119 32.8354 107.856 33.2233 109.608 33.1586C111.786 33.1586 113.595 32.7449 115.09 31.9949V28.1804L114.933 28.3227C114.278 28.7752 113.538 29.1244 112.754 29.3442C111.929 29.6157 111.245 29.7579 110.576 29.7579C108.768 29.7579 107.344 29.2795 106.29 28.258C105.18 27.1072 104.61 25.6202 104.71 24.0944C104.61 22.5299 105.18 20.9911 106.29 19.8015C107.401 18.7412 108.967 18.1723 110.576 18.237C112.085 18.237 113.58 18.7154 114.933 19.6076L115.09 19.7498V15.6897C114.406 15.3535 113.723 15.069 112.826 14.9397ZM127.776 14.7975C126.651 14.7975 125.598 15.1337 124.701 15.7543C123.946 16.2974 123.419 17.1249 122.978 18.1464V15.069H118.464V32.6673H122.978V23.6677C122.978 22.1678 123.348 20.8748 124.103 19.9826C124.857 19.0257 125.825 18.5473 127.036 18.5473L128.388 18.6895L129.442 19.1033L129.599 19.2455V15.1466H129.527C129.2 14.9397 128.602 14.7975 127.776 14.7975ZM140.164 14.7328C137.003 14.7328 134.454 15.625 132.646 17.2543C130.766 19.1292 129.798 21.6118 129.94 24.1462C129.94 26.8745 130.837 29.1244 132.574 30.6889C134.312 32.2535 136.704 33.0811 139.637 33.0811C142.385 33.1974 145.062 32.2535 146.998 30.495C148.849 28.633 149.817 26.1762 149.703 23.6677C149.703 20.8748 148.877 18.6895 147.155 17.0474C145.574 15.4828 143.168 14.7328 140.164 14.7328ZM143.766 28.2451C142.94 29.2019 141.587 29.6804 139.936 29.6804C138.284 29.6804 136.931 29.2019 136.034 28.1804C135.052 27.2236 134.611 25.7883 134.611 23.9522C134.611 22.1161 135.137 20.6808 136.034 19.6593C137.017 18.6378 138.284 18.1594 139.936 18.1594C141.516 18.1594 142.783 18.6378 143.695 19.5947C144.72 20.823 145.218 22.3488 145.119 23.8875C145.047 25.7883 144.677 27.2882 143.766 28.2451ZM159.927 22.3747C158.503 21.8316 157.591 21.4178 157.15 21.0816C156.78 20.7455 156.623 20.3317 156.623 19.711C156.623 19.2326 156.851 18.7542 157.378 18.418C157.905 18.0818 158.503 17.9396 159.4 17.9396C160.952 17.9784 162.461 18.4051 163.757 19.1679L163.913 19.3102V15.4181H163.842C162.475 14.9397 161.023 14.694 159.556 14.6682C157.378 14.6682 155.57 15.1466 154.217 16.1681C152.864 17.0732 152.11 18.5344 152.195 20.0601C152.181 20.8101 152.337 21.5471 152.651 22.2454C152.95 22.8531 153.405 23.4091 154.075 23.8875C154.673 24.366 155.584 24.8444 156.851 25.3228L159.186 26.2797C159.713 26.5512 160.012 26.8227 160.24 27.0296C160.396 27.3012 160.539 27.5727 160.539 27.9865C160.539 29.1502 159.556 29.7579 157.534 29.7579C155.726 29.7062 153.961 29.1631 152.508 28.1934L152.352 28.0511V32.0725H152.423C153.092 32.344 153.932 32.5509 154.9 32.7578C155.883 32.9 156.78 33.0293 157.534 33.0293C159.87 33.0293 161.82 32.5509 163.173 31.5294C164.568 30.5855 165.351 29.0856 165.28 27.5081C165.28 26.3443 164.91 25.2582 164.155 24.5082C163.002 23.81 161.721 23.06 159.927 22.3747ZM177.127 14.7328C173.966 14.7328 171.417 15.625 169.609 17.2543C167.8 18.8835 166.903 21.2756 166.903 24.1462C166.903 26.8745 167.8 29.1244 169.538 30.6889C171.26 32.2535 173.667 33.0811 176.6 33.0811C179.348 33.1974 182.025 32.2535 183.961 30.495C185.812 28.633 186.78 26.1762 186.666 23.6677C186.666 20.8748 185.841 18.6895 184.118 17.0474C182.537 15.4828 180.131 14.7328 177.127 14.7328ZM180.729 28.2451C179.903 29.2019 178.55 29.6804 176.899 29.6804C175.247 29.6804 173.894 29.2019 172.997 28.1804C172.015 27.2236 171.574 25.7883 171.574 23.9522C171.574 22.1161 172.1 20.6808 172.997 19.6593C173.98 18.6378 175.247 18.1594 176.899 18.1594C178.479 18.1594 179.747 18.6378 180.658 19.5947C181.569 20.5515 182.082 21.9868 182.082 23.8875C182.139 25.4263 181.669 26.952 180.729 28.2451ZM211 18.4826V15.069H206.415V9.88393H206.259L201.902 11.0477H201.83V15.0044H194.996V12.7545C194.996 11.733 195.295 10.9184 195.751 10.4399C196.206 9.96151 196.947 9.68997 197.858 9.68997C198.456 9.68997 199.139 9.8322 199.88 10.1037L200.036 10.1684V6.75477H199.965C199.367 6.54788 198.456 6.41858 197.416 6.41858C196.064 6.41858 194.868 6.69012 193.814 7.16854C192.775 7.69869 191.92 8.47451 191.337 9.41843C190.739 10.3753 190.44 11.4614 190.44 12.6898V15.1466H187.279V18.4956H190.44V32.6802H195.024V18.4826H201.859V27.5598C201.859 31.2449 203.81 33.1586 207.64 33.1586C208.793 33.1457 209.946 32.9388 211.014 32.5509V29.1373L210.858 29.2795L209.875 29.6933L208.978 29.8355C208.081 29.8355 207.469 29.6286 206.956 29.1502C206.501 28.6718 206.358 27.9865 206.358 26.9003V18.4826H211Z" fill="white"/>
<path d="M0 0.00634766H21.4147V19.4407H0V0.00634766Z" fill="white"/>
<path d="M23.6644 0.00561523H45.0791V19.44H23.6644V0.00561523Z" fill="white"/>
<path d="M0 21.4824H21.4147V40.9297H0V21.4824Z" fill="white"/>
<path d="M23.6644 21.4824H45.0791V40.9297H23.6644V21.4824Z" fill="white"/>
</svg>
