<svg width="172" height="36" viewBox="0 0 172 36" fill="none" xmlns="http://www.w3.org/2000/svg">
<path d="M68.0893 9.856L68.8253 26.176L71.5773 27.296L71.3853 28H63.8013L63.6093 27.296L65.0493 26.592C65.7319 26.272 66.0626 25.856 66.0413 25.344L65.3373 9.664L59.1933 27.36L57.2093 28L56.6013 27.68L50.6173 9.696L49.7213 26.176L52.1533 27.296L51.9613 28H45.2413L45.0493 27.296L46.8093 26.56C47.3426 26.3253 47.6519 26.0907 47.7373 25.856C47.7586 25.7493 47.7799 25.5787 47.8013 25.344L48.6013 9.024L45.8493 7.904L46.0413 7.2H52.5052L52.9213 7.52L58.3293 24.224L63.9933 7.2H70.6493L70.8413 7.904L69.0813 8.64C68.3986 8.91733 68.0679 9.32267 68.0893 9.856ZM75.5438 25.472V15.904L73.3038 15.552L73.1118 14.848L77.4958 13.344L78.1358 13.6V26.272L80.6638 27.296L80.4718 28H73.3038L73.1118 27.296L74.5518 26.688C74.9358 26.5387 75.1918 26.3787 75.3198 26.208C75.4691 26.0373 75.5438 25.792 75.5438 25.472ZM76.6638 10.016C76.1731 10.016 75.7571 9.856 75.4158 9.536C75.0958 9.19467 74.9358 8.77866 74.9358 8.288C74.9358 7.776 75.0958 7.34933 75.4158 7.008C75.7571 6.66667 76.1731 6.496 76.6638 6.496C77.1758 6.496 77.6024 6.66667 77.9438 7.008C78.2851 7.34933 78.4558 7.776 78.4558 8.288C78.4558 8.77866 78.2851 9.19467 77.9438 9.536C77.6024 9.856 77.1758 10.016 76.6638 10.016ZM90.8903 15.52C90.4209 15.392 89.6743 15.328 88.6503 15.328C87.6263 15.328 86.7516 15.5093 86.0263 15.872C85.2156 16.896 84.8103 18.3573 84.8103 20.256C84.8103 22.1547 85.2583 23.6267 86.1543 24.672C87.0503 25.696 88.2023 26.208 89.6103 26.208C91.0183 26.208 92.3303 25.9307 93.5463 25.376L93.9943 26.208C93.7383 26.464 93.4289 26.7307 93.0663 27.008C92.7036 27.264 92.1169 27.5413 91.3063 27.84C90.5169 28.1173 89.6849 28.256 88.8103 28.256C86.8263 28.256 85.2156 27.6053 83.9783 26.304C82.7409 24.9813 82.1223 23.1467 82.1223 20.8C82.1223 18.4533 82.7943 16.6293 84.1383 15.328C85.5036 14.0053 87.1569 13.344 89.0983 13.344C90.0583 13.344 90.9116 13.5253 91.6583 13.888C92.4049 14.2507 92.9063 14.5707 93.1623 14.848C93.4183 15.1253 93.6209 15.4027 93.7703 15.68L91.9143 18.176L91.1463 17.952L90.8903 15.52ZM104.125 15.456C103.571 15.456 102.909 15.5413 102.141 15.712C101.395 15.8613 100.872 16 100.573 16.128V26.272L103.421 27.296L103.229 28H95.7413L95.5493 27.296L96.9893 26.688C97.3733 26.5387 97.6293 26.3787 97.7573 26.208C97.9066 26.0373 97.9813 25.792 97.9813 25.472V15.904L95.7413 15.552L95.5493 14.848L99.6773 13.344L100.317 13.6L100.445 14.784L100.573 14.848C100.872 14.6133 101.48 14.3253 102.397 13.984C103.336 13.6213 104.029 13.408 104.477 13.344C104.925 13.472 105.405 13.7493 105.917 14.176C106.429 14.5813 106.781 14.9653 106.973 15.328L104.893 18.112L104.125 17.888V15.456ZM110.936 20.448C110.936 24.288 112.397 26.208 115.32 26.208C116.387 26.208 117.304 26.048 118.072 25.728C118.861 24.704 119.256 23.1787 119.256 21.152C119.256 17.312 117.795 15.392 114.872 15.392C113.805 15.392 112.888 15.552 112.12 15.872C111.331 16.896 110.936 18.4213 110.936 20.448ZM114.904 28.256C112.92 28.256 111.309 27.6053 110.072 26.304C108.835 25.0027 108.216 23.168 108.216 20.8C108.216 18.4107 108.899 16.576 110.264 15.296C111.629 13.9947 113.304 13.344 115.288 13.344C117.272 13.344 118.883 13.9947 120.12 15.296C121.357 16.5973 121.976 18.4427 121.976 20.832C121.976 23.2 121.293 25.0347 119.928 26.336C118.563 27.616 116.888 28.256 114.904 28.256ZM131.732 15.392C131.241 15.1787 130.484 15.072 129.46 15.072C128.457 15.072 127.7 15.328 127.188 15.84C126.996 16.1387 126.9 16.4907 126.9 16.896C126.9 17.792 127.444 18.4427 128.532 18.848L131.796 20C132.713 20.32 133.449 20.8427 134.004 21.568C134.558 22.272 134.836 23.104 134.836 24.064C134.836 25.408 134.324 26.4427 133.3 27.168C132.276 27.8933 131.07 28.256 129.684 28.256C128.318 28.256 127.166 28.032 126.228 27.584C125.31 27.1147 124.638 26.624 124.212 26.112L125.844 23.456L126.644 23.68L126.772 25.824C127.518 26.2507 128.468 26.464 129.62 26.464C131.561 26.464 132.532 25.8027 132.532 24.48C132.532 23.9467 132.361 23.52 132.02 23.2C131.678 22.88 131.124 22.592 130.356 22.336L127.411 21.376C126.537 21.0773 125.865 20.5867 125.396 19.904C124.926 19.2213 124.692 18.4533 124.692 17.6C124.692 16.256 125.225 15.2107 126.292 14.464C127.358 13.7173 128.596 13.344 130.004 13.344C130.857 13.344 131.657 13.5147 132.404 13.856C133.449 14.304 134.153 14.8053 134.516 15.36L132.756 17.856L131.988 17.632L131.732 15.392ZM139.967 20.448C139.967 24.288 141.429 26.208 144.351 26.208C145.418 26.208 146.335 26.048 147.103 25.728C147.893 24.704 148.287 23.1787 148.287 21.152C148.287 17.312 146.826 15.392 143.903 15.392C142.837 15.392 141.919 15.552 141.151 15.872C140.362 16.896 139.967 18.4213 139.967 20.448ZM143.935 28.256C141.951 28.256 140.341 27.6053 139.103 26.304C137.866 25.0027 137.247 23.168 137.247 20.8C137.247 18.4107 137.93 16.576 139.295 15.296C140.661 13.9947 142.335 13.344 144.319 13.344C146.303 13.344 147.914 13.9947 149.151 15.296C150.389 16.5973 151.007 18.4427 151.007 20.832C151.007 23.2 150.325 25.0347 148.959 26.336C147.594 27.616 145.919 28.256 143.935 28.256ZM162.875 8.48C162.043 8.33067 161.221 8.256 160.411 8.256C159.6 8.256 158.939 8.384 158.427 8.64C158.128 9.28 157.979 10.6133 157.979 12.64V13.6H161.467L161.819 13.984L161.499 15.2L157.979 15.072V26.048L160.987 27.296L160.795 28H153.147L152.955 27.296L154.395 26.688C154.779 26.5387 155.035 26.3787 155.163 26.208C155.312 26.0373 155.387 25.792 155.387 25.472V15.104L153.147 15.136L152.955 14.432L155.387 13.344C155.515 9.29067 157.093 6.912 160.123 6.208C160.805 6.10133 161.285 6.048 161.563 6.048C162.288 6.048 162.8 6.112 163.099 6.24L163.323 6.912L162.875 8.48ZM165.002 25.152V15.136H162.762L162.57 14.432L165.002 13.344L166.41 10.368L167.594 10.592V13.6H171.402L171.754 13.984L171.434 15.2L167.594 15.072V24.416C167.594 25.2053 167.754 25.792 168.074 26.176C168.394 26.5387 168.959 26.72 169.77 26.72H171.594L171.754 27.616C170.41 28.0427 169.226 28.256 168.202 28.256C167.178 28.256 166.389 27.968 165.834 27.392C165.279 26.816 165.002 26.0693 165.002 25.152Z" fill="white"/>
<rect x="19" width="18" height="16" fill="white"/>
<rect x="19" y="18" width="18" height="16" fill="white"/>
<rect y="18" width="18" height="16" fill="white"/>
<rect width="18" height="16" fill="white"/>
</svg>
