<svg width="337" height="307" viewBox="0 0 337 307" fill="none" xmlns="http://www.w3.org/2000/svg">
<path fill-rule="evenodd" clip-rule="evenodd" d="M151.32 171.822L167.695 187.789V221.275L16.5632 193.035C15.5338 192.843 14.5907 192.332 13.8671 191.575L1 178.113L151.32 171.822ZM335.169 231.761C337.916 223.345 334.275 214.568 328.627 207.751L315.785 192.253L153.555 292.716L165.685 305.219C166.627 306.19 167.929 306.74 169.282 306.73C251.525 306.152 322.02 272.042 335.169 231.761Z" fill="black"/>
<path d="M221.502 58.1986V8.00024L1.96875 51.1168V177.062L154.683 205.598L221.502 58.1986Z" fill="#ABC0BC" stroke="black" stroke-width="2" stroke-linecap="round" stroke-linejoin="round"/>
<path d="M221.502 58.1986L171.031 146.648L154.684 139.454V81.5956L199.727 12.2397L221.502 8.00024V58.1986Z" fill="#D8DEDD" stroke="black" stroke-width="2" stroke-linecap="round" stroke-linejoin="round"/>
<path d="M321.738 192.032V125.1L238.203 108.384L154.684 125.1V192.032H321.738Z" fill="#DCDEDF" stroke="black" stroke-width="2" stroke-linecap="round" stroke-linejoin="round"/>
<path d="M221.647 48.4348C280.565 61.2815 321.739 90.8127 321.739 125.081H154.732L221.647 48.4348Z" fill="white" stroke="black" stroke-width="2" stroke-linecap="round" stroke-linejoin="round"/>
<path d="M154.668 1.0018C177.18 0.92572 199.635 3.26757 221.647 7.98713L154.668 84.6335L1.74414 50.911C27.6462 21.5243 86.3715 1.0018 154.668 1.0018Z" fill="#D8DEDD" stroke="black" stroke-width="2" stroke-linecap="round" stroke-linejoin="round"/>
<path d="M321.739 208.508C321.739 254.707 246.939 292.155 154.732 292.155V242.198L321.739 158.566V208.508Z" fill="#44736C" stroke="black" stroke-width="2" stroke-linecap="round" stroke-linejoin="round"/>
<path d="M321.739 158.566C321.739 204.75 246.939 242.198 154.732 242.198V158.566H321.739Z" fill="#53978E" stroke="black" stroke-width="2" stroke-linecap="round" stroke-linejoin="round"/>
</svg>
