<svg width="139" height="62" viewBox="0 0 139 62" fill="none" xmlns="http://www.w3.org/2000/svg">
<path d="M8.308 27.64C8.308 27.808 8.336 27.99 8.392 28.186L13.978 47.464L20.362 25.54L22.924 24.7L23.722 25.12L30.316 47.464L36.238 27.094L32.626 25.624L32.878 24.7H42.202L42.454 25.624L40.144 26.59C39.668 26.786 39.36 26.982 39.22 27.178C39.08 27.346 38.926 27.682 38.758 28.186L31.66 51.58L28.552 52.336L27.712 52L21.496 31.042L15.574 51.58L12.34 52.336L11.5 52L3.898 26.968L0.622 25.624L0.874 24.7H11.164L11.416 25.624L9.106 26.59C8.574 26.814 8.308 27.164 8.308 27.64ZM44.4667 46.414C44.4667 47.59 44.7887 48.416 45.4327 48.892C46.0767 49.368 46.8187 49.606 47.6587 49.606C48.5267 49.606 49.6747 49.368 51.1027 48.892L51.1867 44.02C47.6027 44.216 45.3767 44.832 44.5087 45.868C44.4807 46.008 44.4667 46.19 44.4667 46.414ZM51.1447 50.74C49.3247 51.804 47.6587 52.336 46.1467 52.336C44.6347 52.336 43.4307 51.86 42.5347 50.908C41.6667 49.928 41.2327 48.696 41.2327 47.212C41.2327 45.7 41.9607 44.538 43.4167 43.726C44.9007 42.914 47.4907 42.396 51.1867 42.172L51.2287 39.442C51.2567 38.182 50.9487 37.174 50.3047 36.418C49.6887 35.634 48.8347 35.242 47.7427 35.242C46.6507 35.242 45.6987 35.368 44.8867 35.62L44.5507 38.812L43.5427 39.106L41.2327 35.83C41.8487 35.13 42.7727 34.444 44.0047 33.772C45.2367 33.1 46.7067 32.764 48.4147 32.764C52.5867 32.764 54.6727 35.298 54.6727 40.366L54.4627 49.732L57.3607 50.74L57.1087 51.664L53.5387 52.336L52.6987 52L51.3547 50.824L51.1447 50.74ZM64.8344 34.822C64.3024 35.046 64.0364 35.354 64.0364 35.746C64.0364 36.11 64.1064 36.446 64.2464 36.754L68.8244 47.548L73.5284 35.368L70.5464 34.024L70.7984 33.1H78.9464L79.1984 34.024L77.1404 34.906C76.6084 35.13 76.2164 35.48 75.9644 35.956C75.9084 36.124 75.8104 36.39 75.6704 36.754L69.7064 51.496C67.7744 56.256 66.0664 59.756 64.5824 61.996L61.4324 60.988L61.0964 60.148C64.0364 56.984 66.0104 54.282 67.0184 52.042L59.9624 35.368L56.9804 34.024L57.2324 33.1H66.4724L66.7244 34.024L64.8344 34.822ZM93.1208 26.38C92.0288 26.184 90.9508 26.086 89.8868 26.086C88.8228 26.086 87.9548 26.254 87.2828 26.59C86.8908 27.43 86.6948 29.18 86.6948 31.84V33.1H91.2728L91.7348 33.604L91.3148 35.2L86.6948 35.032V49.438L90.6428 51.076L90.3908 52H80.3528L80.1008 51.076L81.9908 50.278C82.4948 50.082 82.8308 49.872 82.9988 49.648C83.1948 49.424 83.2928 49.102 83.2928 48.682V35.074L80.3528 35.116L80.1008 34.192L83.2928 32.764C83.4608 27.444 85.5328 24.322 89.5088 23.398C90.4048 23.258 91.0348 23.188 91.3988 23.188C92.3508 23.188 93.0228 23.272 93.4148 23.44L93.7088 24.322L93.1208 26.38ZM97.1308 46.414C97.1308 47.59 97.4528 48.416 98.0968 48.892C98.7408 49.368 99.4828 49.606 100.323 49.606C101.191 49.606 102.339 49.368 103.767 48.892L103.851 44.02C100.267 44.216 98.0408 44.832 97.1728 45.868C97.1448 46.008 97.1308 46.19 97.1308 46.414ZM103.809 50.74C101.989 51.804 100.323 52.336 98.8108 52.336C97.2988 52.336 96.0948 51.86 95.1988 50.908C94.3308 49.928 93.8968 48.696 93.8968 47.212C93.8968 45.7 94.6248 44.538 96.0808 43.726C97.5648 42.914 100.155 42.396 103.851 42.172L103.893 39.442C103.921 38.182 103.613 37.174 102.969 36.418C102.353 35.634 101.499 35.242 100.407 35.242C99.3148 35.242 98.3628 35.368 97.5508 35.62L97.2148 38.812L96.2068 39.106L93.8968 35.83C94.5128 35.13 95.4368 34.444 96.6688 33.772C97.9008 33.1 99.3708 32.764 101.079 32.764C105.251 32.764 107.337 35.298 107.337 40.366L107.127 49.732L110.025 50.74L109.773 51.664L106.203 52.336L105.363 52L104.019 50.824L103.809 50.74ZM114.589 48.682V36.124L111.649 35.662L111.397 34.738L117.151 32.764L117.991 33.1V49.732L121.309 51.076L121.057 52H111.649L111.397 51.076L113.287 50.278C113.791 50.082 114.127 49.872 114.295 49.648C114.491 49.424 114.589 49.102 114.589 48.682ZM116.059 28.396C115.415 28.396 114.869 28.186 114.421 27.766C114.001 27.318 113.791 26.772 113.791 26.128C113.791 25.456 114.001 24.896 114.421 24.448C114.869 24 115.415 23.776 116.059 23.776C116.731 23.776 117.291 24 117.739 24.448C118.187 24.896 118.411 25.456 118.411 26.128C118.411 26.772 118.187 27.318 117.739 27.766C117.291 28.186 116.731 28.396 116.059 28.396ZM134.055 35.536C133.327 35.536 132.459 35.648 131.451 35.872C130.471 36.068 129.785 36.25 129.393 36.418V49.732L133.131 51.076L132.879 52H123.051L122.799 51.076L124.689 50.278C125.193 50.082 125.529 49.872 125.697 49.648C125.893 49.424 125.991 49.102 125.991 48.682V36.124L123.051 35.662L122.799 34.738L128.217 32.764L129.057 33.1L129.225 34.654L129.393 34.738C129.785 34.43 130.583 34.052 131.787 33.604C133.019 33.128 133.929 32.848 134.517 32.764C135.105 32.932 135.735 33.296 136.407 33.856C137.079 34.388 137.541 34.892 137.793 35.368L135.063 39.022L134.055 38.728V35.536Z" fill="white"/>
<path d="M116.75 4.24999L105.25 15.75C102.903 18.0972 102.903 21.9028 105.25 24.25C107.597 26.5972 111.403 26.5972 113.75 24.25L125.25 12.75C127.597 10.4028 127.597 6.59721 125.25 4.25C122.903 1.90279 119.097 1.90278 116.75 4.24999Z" fill="white"/>
<path d="M125.059 15.9551L112.959 5.08789C110.49 2.86983 106.69 3.07377 104.472 5.54338C102.254 8.013 102.457 11.8131 104.927 14.0312L117.027 24.8984C119.496 27.1165 123.297 26.9125 125.515 24.4429C127.733 21.9733 127.529 18.1732 125.059 15.9551Z" fill="white"/>
<path d="M115 6L106 15L115 23L123.5 14.5L115 6Z" fill="#808080"/>
</svg>
