<svg width="144" height="30" viewBox="0 0 144 30" fill="none" xmlns="http://www.w3.org/2000/svg">
<path d="M20.336 29H0.302L0.05 27.782L15.758 3.884L4.67 3.968L2.612 7.748L1.352 7.454V1.7H20.336L20.588 3.086L5.09 26.816L17.018 26.732L19.076 22.952L20.336 23.246V29ZM23.5237 19.55C23.5237 16.47 24.4057 14.076 26.1697 12.368C27.9337 10.632 29.9917 9.764 32.3437 9.764C34.6957 9.764 36.4737 10.464 37.6777 11.864C38.8817 13.236 39.4837 15.126 39.4837 17.534V18.92L38.8537 19.55H27.0937C27.1497 21.706 27.7517 23.428 28.8997 24.716C30.0477 26.004 31.5177 26.648 33.3097 26.648C35.1297 26.648 36.8657 26.284 38.5177 25.556L39.1057 26.648C38.7697 26.984 38.3637 27.334 37.8877 27.698C37.4117 28.034 36.6417 28.398 35.5777 28.79C34.5417 29.154 33.4497 29.336 32.3017 29.336C29.6977 29.336 27.5837 28.482 25.9597 26.774C24.3357 25.038 23.5237 22.63 23.5237 19.55ZM31.8817 12.452C30.5657 12.452 29.4877 12.662 28.6477 13.082C28.3117 13.502 27.9757 14.174 27.6397 15.098C27.3317 16.022 27.1637 16.904 27.1357 17.744L36.1237 17.492C36.1237 14.132 34.7097 12.452 31.8817 12.452ZM57.169 16.694C57.169 15.266 56.833 14.244 56.161 13.628C55.517 12.984 54.467 12.662 53.011 12.662C51.555 12.662 50.099 12.844 48.643 13.208V26.732L51.961 28.076L51.709 29H42.301L42.049 28.076L43.939 27.278C44.443 27.082 44.779 26.872 44.947 26.648C45.143 26.424 45.241 26.102 45.241 25.682V13.124L42.301 12.662L42.049 11.738L47.467 9.764L48.307 10.1L48.391 11.276L48.559 11.36C50.491 10.296 52.479 9.764 54.523 9.764C58.555 9.764 60.571 11.906 60.571 16.19V26.732L63.889 28.076L63.637 29H54.229L53.977 28.076L55.867 27.278C56.371 27.082 56.707 26.872 56.875 26.648C57.071 26.424 57.169 26.102 57.169 25.682V16.694ZM79.0458 27.74C77.2258 28.804 75.1818 29.336 72.9138 29.336C70.6458 29.336 68.8538 28.398 67.5378 26.522C66.2498 24.646 65.6058 22.238 65.6058 19.298C65.6058 16.33 66.4878 14.006 68.2518 12.326C70.0438 10.618 72.3118 9.764 75.0558 9.764C76.2598 9.764 77.3658 9.848 78.3738 10.016L78.9618 10.142V3.464L76.0218 3.002L75.7698 2.078L81.5238 0.103999L82.3638 0.44V26.732L85.2618 28.076L85.0098 29L81.0198 29.336L80.4318 29.084L79.2138 27.824L79.0458 27.74ZM78.9618 13.04C77.8418 12.648 76.4558 12.452 74.8038 12.452C73.1798 12.452 71.8218 12.662 70.7298 13.082C69.6938 14.454 69.1758 16.456 69.1758 19.088C69.1758 23.988 71.0238 26.438 74.7198 26.438C76.0918 26.438 77.5058 26.256 78.9618 25.892V13.04ZM87.5491 19.55C87.5491 16.47 88.4311 14.076 90.1951 12.368C91.9591 10.632 94.0171 9.764 96.3691 9.764C98.7211 9.764 100.499 10.464 101.703 11.864C102.907 13.236 103.509 15.126 103.509 17.534V18.92L102.879 19.55H91.1191C91.1751 21.706 91.7771 23.428 92.9251 24.716C94.0731 26.004 95.5431 26.648 97.3351 26.648C99.1551 26.648 100.891 26.284 102.543 25.556L103.131 26.648C102.795 26.984 102.389 27.334 101.913 27.698C101.437 28.034 100.667 28.398 99.6031 28.79C98.5671 29.154 97.4751 29.336 96.3271 29.336C93.7231 29.336 91.6091 28.482 89.9851 26.774C88.3611 25.038 87.5491 22.63 87.5491 19.55ZM95.9071 12.452C94.5911 12.452 93.5131 12.662 92.6731 13.082C92.3371 13.502 92.0011 14.174 91.6651 15.098C91.3571 16.022 91.1891 16.904 91.1611 17.744L100.149 17.492C100.149 14.132 98.7351 12.452 95.9071 12.452ZM116.28 12.452C115.636 12.172 114.642 12.032 113.298 12.032C111.982 12.032 110.988 12.368 110.316 13.04C110.064 13.432 109.938 13.894 109.938 14.426C109.938 15.602 110.652 16.456 112.08 16.988L116.364 18.5C117.568 18.92 118.534 19.606 119.262 20.558C119.99 21.482 120.354 22.574 120.354 23.834C120.354 25.598 119.682 26.956 118.338 27.908C116.994 28.86 115.412 29.336 113.592 29.336C111.8 29.336 110.288 29.042 109.056 28.454C107.852 27.838 106.97 27.194 106.41 26.522L108.552 23.036L109.602 23.33L109.77 26.144C110.75 26.704 111.996 26.984 113.508 26.984C116.056 26.984 117.33 26.116 117.33 24.38C117.33 23.68 117.106 23.12 116.658 22.7C116.21 22.28 115.482 21.902 114.474 21.566L110.61 20.306C109.462 19.914 108.58 19.27 107.964 18.374C107.348 17.478 107.04 16.47 107.04 15.35C107.04 13.586 107.74 12.214 109.14 11.234C110.54 10.254 112.164 9.764 114.012 9.764C115.132 9.764 116.182 9.988 117.162 10.436C118.534 11.024 119.458 11.682 119.934 12.41L117.624 15.686L116.616 15.392L116.28 12.452ZM137.926 29L129.4 18.836L135.994 12.368L133.012 11.024L133.264 10.1H141.748L142 11.024L140.11 11.822C139.438 12.102 138.598 12.746 137.59 13.754L133.096 18.122L140.32 26.732L143.512 28.076L143.26 29H137.926ZM125.536 25.682V3.464L122.596 3.002L122.344 2.078L128.098 0.103999L128.938 0.44V26.732L132.256 28.076L132.004 29H122.596L122.344 28.076L124.234 27.278C124.738 27.082 125.074 26.872 125.242 26.648C125.438 26.424 125.536 26.102 125.536 25.682Z" fill="white"/>
</svg>
