<svg viewBox="0 0 56 56" fill="none" xmlns="http://www.w3.org/2000/svg">
<rect width="56" height="56" fill="white"/>
<path d="M45.9691 24.7893C44.2474 14.7037 36.6865 8.36868 26.4623 7.16878C14.6298 5.78014 3.36545 13.0758 1.63555 24.7893C0.0180807 35.7416 6.89614 45.1996 17.5956 48.2833C31.4483 52.2758 48.3811 38.9193 45.9691 24.7893Z" stroke="black" stroke-width="2"/>
<path d="M6.54316 3.9062L21.839 1.62022L24.2774 17.9358L7.96182 20.3742L6.54316 3.9062Z" fill="white" stroke="black" stroke-width="2"/>
<path d="M18.0303 37.7998L25.2 53.1998L7 52.7186L18.0303 37.7998Z" fill="white" stroke="black" stroke-width="2"/>
<path d="M54.5951 28.0146C54.4326 33.1309 50.9298 37.9199 45.7718 37.7979C40.4531 37.6722 35.9922 32.2451 36.4301 26.9848C36.8554 21.8755 41.1419 17.8016 46.2911 18.2313C51.3079 18.65 54.7537 23.0223 54.5951 28.0146Z" fill="white" stroke="black" stroke-width="2"/>
</svg>