<svg viewBox="0 0 91 33" fill="none" xmlns="http://www.w3.org/2000/svg">
<path d="M88.6214 11.2743C88.5065 10.7341 87.9755 10.3892 87.4353 10.504L78.632 12.3752C78.0918 12.4901 77.7469 13.0211 77.8617 13.5613C77.9766 14.1015 78.5076 14.4464 79.0478 14.3315L86.873 12.6682L88.5363 20.4934C88.6511 21.0336 89.1821 21.3785 89.7223 21.2637C90.2626 21.1488 90.6074 20.6178 90.4926 20.0776L88.6214 11.2743ZM0.753612 1.49955C11.7698 15.0942 27.6413 26.8908 43.7969 30.7308C51.8901 32.6545 60.085 32.5871 67.7671 29.7088C75.4554 26.8282 82.5493 21.1622 88.4819 12.0268L86.8045 10.9375C81.0707 19.7669 74.2977 25.1262 67.0654 27.8359C59.8268 30.548 52.0474 30.6361 44.2594 28.785C28.6526 25.0754 13.1342 13.6012 2.30748 0.240388L0.753612 1.49955Z" fill="CurrentColor"/>
</svg>