<svg viewBox="0 0 78 58" fill="none" xmlns="http://www.w3.org/2000/svg">
<path d="M9.06437 56.9514C9.53273 57.244 10.1497 57.1016 10.4423 56.6332L15.2116 49.0008C15.5043 48.5325 15.3618 47.9155 14.8935 47.6228C14.4251 47.3302 13.8082 47.4726 13.5155 47.941L9.27616 54.7254L2.49177 50.486C2.02341 50.1933 1.40647 50.3358 1.11381 50.8041C0.821141 51.2725 0.963572 51.8894 1.43194 52.1821L9.06437 56.9514ZM77.1338 0.534694C59.7021 -0.984549 40.1911 2.23785 26.2062 11.1917C19.2004 15.6772 13.5562 21.6189 10.2903 29.1444C7.02169 36.6759 6.16961 45.7148 8.61992 56.3283L10.5687 55.8784C8.20041 45.6204 9.0502 37.0255 12.125 29.9406C15.2023 22.8496 20.543 17.1924 27.2846 12.8761C40.7944 4.22637 59.8284 1.03403 76.9602 2.52714L77.1338 0.534694Z" fill="black"/>
</svg>