<svg width="40" height="40" viewBox="0 0 40 40" fill="none" xmlns="http://www.w3.org/2000/svg">
<path d="M6.7948 7.00003C9.88626 4.49843 12 2.00003 20 2C29.9411 2 38 10.0589 38 20C38 29.9411 29.9411 38 20 38C10.0589 38 2 29.9411 2 20C2 16.1667 4.5 7.81554 10 3.81554" stroke="white" stroke-linecap="round" stroke-linejoin="round"/>
<path d="M29.5 20C29.5 25.5228 25.5228 30 20 30C14.4772 30 10 25.5228 10 20C10 14.4772 14.4772 10.5 20 10.5C25.5228 10.5 29.5 14.4772 29.5 20Z" stroke="white" stroke-linecap="round" stroke-linejoin="round"/>
</svg>
