<svg viewBox="0 0 56 56" fill="none" xmlns="http://www.w3.org/2000/svg">
<rect width="56" height="56" fill="white"/>
<path d="M35.8661 27.9999C35.8661 34.441 34.8854 40.2277 33.3328 44.3679C32.5552 46.4417 31.6533 48.0505 30.7025 49.1229C29.7507 50.1964 28.835 50.6444 27.9995 50.6444C27.1639 50.6444 26.2482 50.1964 25.2964 49.1229C24.3457 48.0505 23.4438 46.4417 22.6661 44.3679C21.1135 40.2277 20.1328 34.441 20.1328 27.9999C20.1328 21.5588 21.1135 15.7721 22.6661 11.6319C23.4438 9.55809 24.3457 7.94932 25.2964 6.87697C26.2482 5.80346 27.1639 5.35547 27.9995 5.35547C28.835 5.35547 29.7507 5.80346 30.7025 6.87697C31.6533 7.94932 32.5552 9.55809 33.3328 11.6319C34.8854 15.7721 35.8661 21.5588 35.8661 27.9999Z" stroke="black" stroke-width="2"/>
<path d="M53.6004 27.9999C53.6004 40.3986 42.2529 50.6444 28.0004 50.6444C13.7479 50.6444 2.40039 40.3986 2.40039 27.9999C2.40039 15.6012 13.7479 5.35547 28.0004 5.35547C42.2529 5.35547 53.6004 15.6012 53.6004 27.9999Z" stroke="black" stroke-width="2"/>
<path d="M46.5069 27.9999C46.5069 40.7259 38.2891 50.6444 28.5913 50.6444C18.8935 50.6444 10.6758 40.7259 10.6758 27.9999C10.6758 15.274 18.8935 5.35547 28.5913 5.35547C38.2891 5.35547 46.5069 15.274 46.5069 27.9999Z" stroke="black" stroke-width="2"/>
<path d="M2.30078 29.028C9.70834 28.5236 19.7946 29.1197 27.1743 28.4379C31.2499 28.0613 35.2318 28.197 39.3098 28.197C43.621 28.197 49.4911 28 53.7019 28" stroke="black" stroke-width="2" stroke-linecap="round" stroke-linejoin="round"/>
</svg>