<svg width="40" height="30" viewBox="0 0 40 30" fill="none" xmlns="http://www.w3.org/2000/svg">
<path d="M12.0877 1.00046C11.7427 1.07713 0.145815 28.5931 0.000747283 28.859C-0.150107 29.1607 22.5887 28.859 23.0039 28.859H26.3097C26.3635 28.859 27.0303 28.8705 26.8607 28.6524C26.4437 27.8275 12.6681 0.871485 12.0877 1.00046Z" stroke="white" stroke-linecap="round" stroke-linejoin="round"/>
<path d="M21.0742 19.1461C21.6202 17.8904 24.5627 10.1039 25.2209 8.89733C25.3659 8.63137 25.8056 7.24073 26.1506 7.16406L37.1012 22.8209C38.313 24.7342 38.6132 25.2778 39.9623 27.0122C40.1319 27.2303 39.3044 27.1729 39.2506 27.1729C38.1486 27.1729 36.7569 27.1729 35.6549 27.1729C33.4242 27.1729 28.7159 27.1729 26.4852 27.1729" stroke="white" stroke-linecap="round" stroke-linejoin="round"/>
</svg>
