<svg width="40" height="40" viewBox="0 0 40 40" fill="none" xmlns="http://www.w3.org/2000/svg">
<path d="M8.5 4C9.5 3.5 9.29965 3.60961 9.46969 3.5518M9.46969 3.5518C10.9661 3.04313 13.4014 2.54702 14 3.72327C13.6528 11.0915 12.875 26.2374 12.5417 27.8747C12.125 29.9215 9.31438 6.24576 9.46969 3.5518Z" stroke="white" stroke-linecap="round" stroke-linejoin="round"/>
<path d="M21.043 27.8747C21.3764 26.2374 22.1541 11.0915 22.5014 3.72327C21.9027 2.54702 19.4674 3.04313 17.971 3.5518C17.8157 6.24576 20.6264 29.9215 21.043 27.8747Z" stroke="white" stroke-linecap="round" stroke-linejoin="round"/>
<path d="M30.0782 27.8747C30.4115 26.2374 31.1893 11.0915 31.5365 3.72327C30.9379 2.54702 28.5026 3.04313 27.0062 3.5518C26.8509 6.24576 29.6615 29.9215 30.0782 27.8747Z" stroke="white" stroke-linecap="round" stroke-linejoin="round"/>
<path d="M12.873 32.0114C12.2672 31.9158 11.2502 32.4318 11.059 33.1182C10.9144 33.6373 11.0654 34.2805 11.1943 34.7785C11.2546 35.0115 11.4087 35.3052 11.6102 35.4259C11.8481 35.5686 12.0867 35.8039 12.3518 35.8853C12.9202 36.0596 13.5046 36.0231 14.0707 35.8576C14.4971 35.7329 14.837 35.0058 14.9376 34.5737C15.0501 34.0906 15.0117 33.4332 14.8123 32.9799C14.6341 32.5746 14.1392 32.315 13.765 32.1719C13.3715 32.0215 12.9705 32.0114 12.5573 32.0114" stroke="white" stroke-linecap="round" stroke-linejoin="round"/>
<path d="M20.4622 32.2105C19.9294 32.2105 19.3913 32.4461 19.1428 32.9432C18.8653 33.4981 19.0625 34.0503 19.1497 34.6168C19.3842 36.141 21.7115 36.0991 22.5594 35.1741C22.9971 34.6966 23.0663 34.1952 22.7573 33.6185C22.5757 33.2795 22.2443 32.9241 21.9448 32.6862C21.7153 32.5039 21.475 32.3531 21.2278 32.1932C21.1403 32.1366 20.6678 31.8931 20.5872 32.0543" stroke="white" stroke-linecap="round" stroke-linejoin="round"/>
<path d="M28.9751 32.2973C28.2582 32.4351 27.9509 33.3495 28.0063 33.9952C28.0527 34.5356 28.2352 34.7824 28.7216 35.023C29.3619 35.3396 30.3336 35.4097 30.9508 34.9952C31.3095 34.7543 31.7535 34.4128 31.7859 33.9431C31.8193 33.4577 31.5741 33.0704 31.2563 32.7209C31.0133 32.4535 30.6073 32.1408 30.2581 32.0316C30.027 31.9594 29.6836 32.0242 29.4595 32.0924C29.3154 32.1363 28.9082 32.123 28.8501 32.2973" stroke="white" stroke-linecap="round" stroke-linejoin="round"/>
</svg>
