<svg viewBox="0 0 56 56" fill="none" xmlns="http://www.w3.org/2000/svg">
<rect width="56" height="56" fill="white"/>
<ellipse cx="46.1992" cy="7.70039" rx="7" ry="6.3" fill="white" stroke="black" stroke-width="2"/>
<circle cx="7.70039" cy="31.5002" r="6.3" fill="white" stroke="black" stroke-width="2"/>
<path d="M8.12956 40.6147C-1.38181 41.1525 1.97516 54.5996 1.97516 54.5996L18.2004 54.0617C18.2004 54.0617 17.6409 40.077 8.12956 40.6147Z" fill="white" stroke="black" stroke-width="2"/>
<path d="M47.1743 19.1198C56.2625 18.7812 54.3526 32.3781 54.3526 32.3781L38.8853 33.3309C38.8853 33.3309 38.086 19.4585 47.1743 19.1198Z" fill="white" stroke="black" stroke-width="2"/>
<path d="M22.2817 49.4069C21.7333 49.4724 21.3419 49.9701 21.4075 50.5185C21.473 51.0669 21.9707 51.4583 22.5191 51.3927L22.2817 49.4069ZM40.1305 37.4324C39.9275 36.9187 39.3467 36.6668 38.833 36.8697L30.4624 40.1763C29.9488 40.3792 29.6968 40.9601 29.8997 41.4738C30.1026 41.9874 30.6835 42.2393 31.1972 42.0364L38.6377 39.0973L41.5769 46.5378C41.7798 47.0514 42.3607 47.3034 42.8743 47.1005C43.388 46.8975 43.6399 46.3167 43.437 45.803L40.1305 37.4324ZM22.5191 51.3927C27.1947 50.8337 30.7007 49.7014 33.506 47.5662C36.3085 45.4331 38.3037 42.3809 40.1178 38.1977L38.2829 37.4019C36.5335 41.436 34.7104 44.1361 32.2947 45.9747C29.8819 47.8112 26.7697 48.8703 22.2817 49.4069L22.5191 51.3927Z" fill="black"/>
<path d="M31.4979 7.3834C32.0151 7.57708 32.5914 7.3148 32.7851 6.79759C32.9788 6.28038 32.7165 5.70409 32.1993 5.51041L31.4979 7.3834ZM11.5601 20.4243C11.7436 20.9452 12.3146 21.2188 12.8355 21.0354L21.3245 18.0458C21.8454 17.8624 22.119 17.2914 21.9356 16.7705C21.7521 16.2495 21.1811 15.976 20.6602 16.1594L13.1144 18.8168L10.4571 11.271C10.2736 10.7501 9.70261 10.4765 9.18168 10.6599C8.66076 10.8434 8.38718 11.4144 8.57063 11.9353L11.5601 20.4243ZM32.1993 5.51041C29.7852 4.60642 27.5915 4.29326 25.5629 4.56731C23.5272 4.84233 21.7297 5.69907 20.0998 7.0209C16.8883 9.62546 14.2707 14.0889 11.6015 19.6601L13.4052 20.5242C16.077 14.9477 18.5332 10.8665 21.3596 8.57427C22.7487 7.44771 24.2113 6.76807 25.8306 6.54931C27.457 6.32959 29.3132 6.56529 31.4979 7.3834L32.1993 5.51041Z" fill="black"/>
</svg>
