<?xml version="1.0" encoding="utf-8"?>
<!-- Generator: Adobe Illustrator 26.0.3, SVG Export Plug-In . SVG Version: 6.00 Build 0)  -->
<svg version="1.0" id="katman_1" xmlns="http://www.w3.org/2000/svg" xmlns:xlink="http://www.w3.org/1999/xlink" x="0px" y="0px"
	 viewBox="0 0 800 600" style="enable-background:new 0 0 800 600;" xml:space="preserve">
<style type="text/css">
	.st0{fill:#7F187F;}
	.st1{fill:#82D170;}
	.st2{fill:#F8CF1C;}
	.st3{fill:#C6D636;}
	.st4{fill:#D57DEA;}
</style>
<path class="st0" d="M303.3,262.9h-28.5c-2.6,0-4.6,2.2-4.8,4.8v6.4c0,1.7,1.4,3,3.1,3h4.8c0.1,0,0.3,0.1,0.3,0.2
	c0.1,0.1,0.1,0.3,0.1,0.5l-11.1,33.5c-0.1,0.2-0.3,0.3-0.5,0.3s-0.4-0.1-0.4-0.3l-16.7-45.4c-0.4-1.1-1.5-1.8-2.7-1.9h-10.1
	c-1.2,0.1-2.3,0.9-2.7,1.9l-16.8,45.4c0,0.2-0.2,0.3-0.4,0.3s-0.4-0.1-0.5-0.3l-11.1-33.5c0-0.2,0-0.3,0.1-0.5
	c0.1-0.1,0.2-0.2,0.3-0.2h4.8c1.7,0,3.1-1.4,3.1-3v-6.4c0-2.6-2.2-4.8-4.8-4.8h-28.5c-1,0-1.9,0.5-2.6,1.3c-0.5,0.8-0.8,1.7-0.4,2.6
	c0.4,1.2,0.9,2.6,1.4,4c0.5,1.4,1,2.8,1.4,4c0.4,1.3,1.6,2.2,2.9,2.2h4.8c0.2,0,0.4,0.1,0.5,0.4l22.2,65.3c0.4,1.3,1.6,2.2,2.9,2.2
	h6.9c1.3,0,2.4-0.8,2.9-1.9c6.2-17.6,17.7-51.4,18.3-52.4c0.1-0.2,0.3-0.4,0.5-0.4s0.4,0.1,0.5,0.4c0.4,1.2,12.1,34.8,18.3,52.5
	c0.4,1.2,1.6,2.1,2.9,2.1h6.9c1.3,0,2.5-0.9,2.9-2.2l22.2-65.3c0.2-0.4,0.4-0.4,0.5-0.4h4.8c1.3,0,2.5-0.9,2.9-2.1
	c0.4-1.3,1-2.7,1.4-4c0.4-1.4,1-2.8,1.4-4c0.3-0.9,0.1-1.8-0.4-2.6C305.2,263.4,304.2,262.9,303.3,262.9L303.3,262.9z M637.6,331.7
	h-5.2c-0.8,0-1.4-0.6-1.5-1.5v-64.3c0-1.2-1-2.1-2.1-2.1h-15.2c-0.6,0-1.3,0.3-1.6,0.8l-6.3,7.9c-0.3,0.3-0.4,0.9-0.4,1.3
	c0,1.1,0.9,2.1,2.1,2.2h1.9c0.8,0,1.4,0.6,1.5,1.5V330c0,0.4-0.1,0.9-0.4,1.2c-1.6,2.2-5.3,6.7-7,9c-0.3,0.4-0.5,0.9-0.5,1.4
	c0,1.2,1,2.1,2.1,2.2h26.5c0.5,0,1.1-0.2,1.5-0.5l6.2-7.8C640.3,333.7,639.3,331.7,637.6,331.7z"/>
<circle class="st0" cx="620.7" cy="243.8" r="11.4"/>
<path class="st0" d="M720.9,270.5c0-1.1-0.5-2.2-2.1-2.2h-2.6v6.9h1v-2.6h0.9l1.7,2.6h1.2l-1.8-2.6
	C720.4,272.5,720.9,271.4,720.9,270.5L720.9,270.5z M717.2,271.8v-2.6h1.7c0.6,0,1.1,0.5,1.1,1.2v0.1c0.1,0.6-0.4,1.2-1.1,1.3
	L717.2,271.8L717.2,271.8z"/>
<path class="st0" d="M718.4,265.8c-3.2,0-5.9,2.7-5.9,5.9c0,3.2,2.7,5.9,5.9,5.9c3.2,0,5.9-2.7,5.9-5.9
	C724.3,268.5,721.6,265.8,718.4,265.8z M718.4,276.8c-2.8,0-5.1-2.3-5.1-5.1v-0.1c0-2.7,2.3-5,5-5h0.1c2.8,0,5.1,2.3,5.1,5.1
	C723.4,274.6,721.1,276.8,718.4,276.8L718.4,276.8z M377.8,332c-4.4,0.2-6.6-1.8-6.6-6.9v-36.1c0-15.8-13.3-25.8-28.1-25.8
	c-23.1,0-31.5,11-32.4,23.2c-0.1,1.2,0.9,2.2,2.1,2.3h11.5c1.1,0,1.9-0.9,2.1-1.9c0.5-6.4,4.9-11.1,12.1-11.1c8,0,12.8,4,12.8,13.2
	v7.9h-4.1c-14.3,0-24,1.8-30.6,5.9s-9.9,11.8-9.9,20.7c0,6.6,2.3,12,6.8,16.3c4.5,4.3,9.8,6.2,16.8,6.2c4.1,0,8.2-1,12-2.7
	c3.7-1.6,7.1-3.8,10.1-6.5c0.6-0.5,1.5-0.5,2.2,0.1c0.1,0.1,0.2,0.2,0.2,0.3c3.2,5.7,6.8,7.6,13.5,7.6c6.1,0,9-5.7,11.7-9.1
	C380.6,334,379.5,331.9,377.8,332L377.8,332z M351.2,326.3c-0.1,0.5-0.9,1.2-1.2,1.5c-1.8,1.5-3.9,2.9-6.1,3.9
	c-1.9,0.9-4.1,1.3-6.3,1.2c-3.1,0-6.3-1.2-8.3-3.5c-2.1-2.3-3.2-5.3-3.1-8.4c0-4.8,1.7-7.9,5.3-10.2c3.6-2.4,9.3-3.5,16.3-3.5h3.5
	L351.2,326.3z M594.9,332c-4.4,0.2-6.6-1.8-6.6-6.9v-36.1c0-15.8-13.3-25.8-28.1-25.8c-23.1,0-31.5,11-32.4,23.2
	c-0.1,1.2,0.9,2.2,2.1,2.3h11.5c1.1,0,1.9-0.9,2.1-1.9c0.5-6.4,4.9-11.1,12.1-11.1c8,0,12.8,4,12.8,13.2v7.9h-4.1
	c-14.3,0-24,1.8-30.6,5.9s-9.9,11.8-9.9,20.7c0,6.6,2.3,12,6.8,16.3c4.5,4.3,9.8,6.2,16.8,6.2c4.1,0,8.2-1,12-2.7
	c3.7-1.6,7.1-3.8,10.1-6.5c0.6-0.5,1.5-0.5,2.2,0.1c0.1,0.1,0.2,0.2,0.2,0.3c3.2,5.7,6.8,7.6,13.5,7.6c6.1,0,9-5.7,11.7-9.1
	C597.6,334,596.5,331.9,594.9,332L594.9,332z M568.2,326.3c-0.1,0.5-0.9,1.2-1.2,1.5c-1.8,1.5-3.9,2.9-6.1,3.9
	c-1.9,0.9-4.1,1.3-6.3,1.2c-3.1,0-6.3-1.2-8.3-3.5c-2.1-2.3-3.2-5.3-3.1-8.4c0-4.8,1.7-7.9,5.3-10.2c3.6-2.4,9.3-3.5,16.3-3.5h3.5
	v18.9H568.2z M702.5,263.5c-1.1-0.5-3.7-0.9-5.9-0.9c-3.7,0-6.6,0.5-9.2,1.6l-0.2,0.1c-1,0.4-1.8,1-2.7,1.6
	c-3.2,2.1-6.2,4.5-8.5,7.4c-2.5,2.9-1.1,0.9-1.3-0.5v-7.1c0-1.2-1-2.1-2.2-2.2h-15.2c-0.6,0-1.2,0.3-1.5,0.8c-0.4,0.4-4.8,5.9-6.4,8
	c-1,1.2-0.3,3.5,1.6,3.5h1.9c0.9,0,1.5,0.6,1.5,1.5v52.9c0,0.4-0.1,0.9-0.3,1.2c-1.5,1.8-5.3,6.6-7.1,9c-0.3,0.3-0.4,0.9-0.4,1.3
	c0,1.2,1,2.1,2.1,2.2h32.8c1.2,0,2.2-1,2.2-2.2v-7.9c0-1.2-1-2.2-2.2-2.2h-5.2c-0.9,0-1.5-0.6-1.5-1.5v-30.8
	c0.5-14.7,9.3-19.1,13.5-20.4l0.6-0.2h0.2c1.2-0.3,2.3-0.4,3.5-0.4c5,0,6.8,0.8,9.5,1.4c1.1,0.3,2.2-1,2.2-2.2v-12
	C704,264.6,703.2,263.9,702.5,263.5L702.5,263.5z M524.1,263.8h-23.8c-0.9,0-1.5-0.6-1.5-1.5v-11.8c0-5.7,2.9-11.4,9-11.4
	c6.9,0,8,5.8,8.2,10.2c0.1,1.1,1,1.9,2.1,2.1h9.8c1.1,0,1.9-1,1.9-2.1c-0.2-14.7-9.5-21-24.5-21c-9.1,0-15.1,2.8-19.6,8.3
	c-4.5,5.5-6.8,11.6-6.8,22.6v2.9c0,0.8-0.6,1.4-1.5,1.5l-40.5,0.1h-0.1c-1.2,0-2.1,1-2.1,2.1v8c0,1.2,1,2.2,2.2,2.2h4.3
	c0.9,0,1.5,0.6,1.5,1.5c0,0.2,0,0.4-0.1,0.5c-0.1,0.2-11.1,26-15.7,36.4c-0.2,0.5-0.8,0.9-1.4,0.9c-0.6,0-1.1-0.3-1.4-0.9
	c-4.6-10.5-15.9-36.4-15.9-36.4c-0.1-0.2-0.1-0.3-0.1-0.5c0-0.9,0.6-1.5,1.5-1.5h3c1.2,0,2.2-1,2.2-2.2v-8c0-1.2-1-2.1-2.1-2.1
	h-36.8c-1.2,0-2.1,1-2.2,2.2c0,0.3,0.1,0.6,0.2,1c1.1,1.9,3.6,6.6,4.2,8c0.3,0.6,1.1,1.1,1.7,1.1h7c0.5,0,1.1,0.3,1.4,0.9
	c0.2,0.5,26.1,58.6,27,60.7c1,2.6,1,5.5,0,8.1c-1.2,4.8-9.2,13.4-13.6,11.8c-3-1.1-3.5-6.6-7.1-7.2c-0.6-0.1-1.4,0-1.9,0.2
	c-0.6,0.2-6.6,7.9-7.9,9.2c-0.6,0.9-0.6,2.1,0,2.8c3.2,3.4,8.8,7.9,16.5,8.1c9.6,0.4,19.2-0.9,28-17.7c0,0,28.1-68.7,31.5-76.1
	c0.3-0.5,0.8-0.8,1.4-0.8H477c0.9,0,1.5,0.6,1.5,1.5v52.8c0,0.4-0.1,0.9-0.4,1.2c-1.7,2.3-5.3,6.7-7,9c-0.3,0.3-0.4,0.9-0.4,1.3
	c0,1.2,1,2.1,2.1,2.1h33.2c1.2,0,2.2-1,2.2-2.2v-7.9c0-1.2-1-2.2-2.2-2.2h-5.4c-0.8,0-1.4-0.6-1.5-1.5v-52.8c0-0.8,0.6-1.4,1.5-1.5
	H518c0.6,0,1.3-0.3,1.6-0.8c1.5-1.9,4.5-5.8,6.1-8c0.3-0.3,0.4-0.9,0.4-1.3C526.1,264.7,525.2,263.9,524.1,263.8L524.1,263.8z"/>
<path class="st1" d="M166.2,289.2l-5.7-21.6c-0.2-0.8-0.8-1.3-1.5-1.5l-21.6-5.7c-0.8-0.2-1.5,0-1.9,0.5L121,275.4l30.3,30.3
	l14.5-14.5C166.2,290.7,166.4,289.9,166.2,289.2L166.2,289.2z"/>
<path class="st2" d="M75.7,322.1l5.7,21.6c0.2,0.8,0.8,1.3,1.5,1.5l21.6,5.7c0.8,0.2,1.5,0,1.9-0.5L121,336l-30.3-30.3l-14.5,14.5
	C75.7,320.7,75.4,321.5,75.7,322.1z"/>
<path class="st3" d="M104.4,260.4l-21.6,5.7c-0.8,0.2-1.3,0.8-1.5,1.5l-5.7,21.6c-0.2,0.8,0,1.5,0.5,1.9l14.6,14.5l30.3-30.3
	l-14.5-14.5C105.9,260.4,105.2,260.2,104.4,260.4L104.4,260.4z"/>
<path class="st4" d="M165.5,320l-14.3-14.3L121,336l14.3,14.3c0.6,0.6,1.6,0.9,2.5,0.6l21-5.6c0.9-0.2,1.6-1,1.8-1.8l5.6-21
	C166.4,321.6,166.2,320.6,165.5,320L165.5,320z"/>
<path class="st0" d="M121,275.4l-30.3,30.3L121,336l30.3-30.3L121,275.4z"/>
<path class="st1" d="M166.2,289.2l-5.7-21.6c-0.2-0.8-0.8-1.3-1.5-1.5l-21.6-5.7c-0.8-0.2-1.5,0-1.9,0.5L121,275.4l30.3,30.3
	l14.5-14.5C166.2,290.7,166.4,289.9,166.2,289.2L166.2,289.2z"/>
<path class="st2" d="M75.7,322.1l5.7,21.6c0.2,0.8,0.8,1.3,1.5,1.5l21.6,5.7c0.8,0.2,1.5,0,1.9-0.5L121,336l-30.3-30.3l-14.5,14.5
	C75.7,320.7,75.4,321.5,75.7,322.1z"/>
<path class="st3" d="M104.4,260.4l-21.6,5.7c-0.8,0.2-1.3,0.8-1.5,1.5l-5.7,21.6c-0.2,0.8,0,1.5,0.5,1.9l14.6,14.5l30.3-30.3
	l-14.5-14.5C105.9,260.4,105.2,260.2,104.4,260.4L104.4,260.4z"/>
<path class="st4" d="M165.5,320l-14.3-14.3L121,336l14.3,14.3c0.6,0.6,1.6,0.9,2.5,0.6l21-5.6c0.9-0.2,1.6-1,1.8-1.8l5.6-21
	C166.4,321.6,166.2,320.6,165.5,320L165.5,320z"/>
<path class="st0" d="M121,275.4l-30.3,30.3L121,336l30.3-30.3L121,275.4z"/>
</svg>
