<svg width="24" height="24" viewBox="0 0 24 24" fill="none" xmlns="http://www.w3.org/2000/svg">
<rect x="0.5" y="0.5" width="23" height="23" rx="3.5" stroke="CurrentColor"/>
<path fill-rule="evenodd" clip-rule="evenodd" d="M8.72437 17.2996V9.55997H6.15648V17.2996H8.72437ZM7.44043 8.50401C8.34039 8.50401 8.89237 7.90404 8.89237 7.17207C8.88037 6.4041 8.34039 5.82812 7.45243 5.82812C6.57646 5.82812 6.00049 6.4041 6.00049 7.17207C6.00049 7.91604 6.55247 8.50401 7.41643 8.50401H7.44043Z" fill="CurrentColor"/>
<path fill-rule="evenodd" clip-rule="evenodd" d="M10.1525 17.2996H12.7204V12.9798C12.7204 12.7518 12.7324 12.5118 12.8044 12.3559C12.9844 11.8879 13.4164 11.4199 14.1243 11.4199C15.0603 11.4199 15.4323 12.1279 15.4323 13.1718V17.3116H18.0002V12.8718C18.0002 10.4959 16.7282 9.39198 15.0363 9.39198C13.6444 9.39198 13.0444 10.1719 12.6964 10.6999H12.7204V9.57197H10.1525C10.1765 10.2799 10.1525 17.2996 10.1525 17.2996Z" fill="CurrentColor"/>
</svg>