<svg width="24" height="24" viewBox="0 0 24 24" fill="none" xmlns="http://www.w3.org/2000/svg">
<rect x="0.5" y="0.5" width="23" height="23" rx="3.5" stroke="CurrentColor"/>
<path fill-rule="evenodd" clip-rule="evenodd" d="M7.49632 11.9997C7.80726 11.6888 8.31139 11.6888 8.62233 11.9997C8.93327 12.3106 8.93327 12.8148 8.62233 13.1257L8.05932 13.6887C7.43744 14.3106 7.43744 15.3189 8.05932 15.9407C8.6812 16.5626 9.68947 16.5626 10.3113 15.9407L12.5634 13.6887C13.1853 13.0668 13.1853 12.0586 12.5634 11.4367C12.2524 11.1258 12.2524 10.6216 12.5634 10.3107C12.8743 9.99974 13.3784 9.99974 13.6894 10.3107C14.9332 11.5544 14.9332 13.571 13.6894 14.8147L11.4374 17.0668C10.1936 18.3105 8.17707 18.3105 6.93331 17.0668C5.68955 15.823 5.68955 13.8065 6.93331 12.5627L7.49632 11.9997ZM16.5043 11.9999C16.1934 12.3108 15.6892 12.3108 15.3783 11.9999C15.0674 11.6889 15.0674 11.1848 15.3783 10.8739L15.9413 10.3109C16.5632 9.68898 16.5632 8.68071 15.9413 8.05883C15.3194 7.43695 14.3112 7.43695 13.6893 8.05883L11.4373 10.3109C10.8154 10.9327 10.8154 11.941 11.4373 12.5629C11.7482 12.8738 11.7482 13.378 11.4373 13.6889C11.1263 13.9998 10.6222 13.9998 10.3112 13.6889C9.06749 12.4451 9.06749 10.4286 10.3112 9.18485L12.5633 6.93282C13.807 5.68906 15.8236 5.68906 17.0673 6.93282C18.3111 8.17658 18.3111 10.1931 17.0673 11.4369L16.5043 11.9999Z" fill="CurrentColor"/>
</svg>