<svg viewBox="0 0 23 24" fill="none" xmlns="http://www.w3.org/2000/svg">
<path d="M21.162 13.9309C21.93 8.46638 17.3343 3.46611 11.8177 3.33141C6.92492 3.21195 2.78723 6.40614 2.10608 11.2528C1.42493 16.0994 4.41147 20.863 9.25808 21.5441C14.6544 22.3025 20.394 19.3954 21.162 13.9309Z" stroke="white"/>
<path d="M11.0586 7.52441L10.9036 13.5215L15.7622 10.765" stroke="white" stroke-linejoin="round"/>
<path d="M11.4593 3.45252L11.2852 1.02051" stroke="white"/>
<line x1="9.16691" y1="1.08016" x2="13.3177" y2="1.00649" stroke="white"/>
<path d="M4.60039 19.1786C5.75168 20.3585 7.24421 21.1983 8.98975 21.5029C8.91636 21.9054 8.72091 22.4071 8.22845 22.7762C6.91191 23.7628 4.28569 22.3772 3.86449 20.7868C3.67081 20.0554 4.51234 19.2594 4.60039 19.1786Z" stroke="white"/>
<path d="M18.4465 19.1464C17.2952 20.3262 15.8027 21.1661 14.0571 21.4706C14.1305 21.8731 14.326 22.3749 14.8184 22.7439C16.135 23.7306 18.7612 22.3449 19.1824 20.7546C19.3761 20.0232 18.5345 19.2272 18.4465 19.1464Z" stroke="white"/>
</svg>