<svg width="24" height="24" viewBox="0 0 24 24" fill="none" xmlns="http://www.w3.org/2000/svg">
<rect x="0.5" y="0.5" width="23" height="23" rx="3.5" stroke="CurrentColor"/>
<path d="M9.33195 17.6991C14.5292 17.6991 17.3731 13.3892 17.3731 9.65802C17.3731 9.53677 17.3731 9.41552 17.3675 9.29427C17.9187 8.89745 18.3982 8.39592 18.7785 7.82824C18.2714 8.05421 17.7258 8.20302 17.1526 8.27467C17.7368 7.92745 18.1832 7.3708 18.3982 6.70943C17.8526 7.0346 17.2463 7.26608 16.6015 7.39284C16.0889 6.84171 15.3504 6.5 14.5402 6.5C12.9805 6.5 11.7129 7.76762 11.7129 9.32734C11.7129 9.5478 11.7404 9.76274 11.7845 9.97217C9.43667 9.85092 7.35336 8.7266 5.95898 7.01807C5.71648 7.43694 5.5787 7.92194 5.5787 8.44001C5.5787 9.42103 6.08023 10.2863 6.83529 10.7934C6.37233 10.7768 5.93694 10.6501 5.55114 10.4406C5.55114 10.4517 5.55114 10.4627 5.55114 10.4792C5.55114 11.846 6.52665 12.9924 7.81632 13.2514C7.57933 13.3176 7.33132 13.3507 7.07228 13.3507C6.89041 13.3507 6.71404 13.3341 6.54319 13.3011C6.90143 14.4254 7.94859 15.2411 9.18314 15.2631C8.21314 16.0237 6.99512 16.4756 5.67239 16.4756C5.44642 16.4756 5.22046 16.4646 5 16.437C6.25108 17.2307 7.73916 17.6991 9.33195 17.6991Z" fill="CurrentColor"/>
</svg>