<svg viewBox="0 0 104 37" fill="none" xmlns="http://www.w3.org/2000/svg">
<path d="M102.288 8.06503C102.805 8.25916 103.381 7.9974 103.576 7.48036C103.77 6.96332 103.508 6.3868 102.991 6.19266L102.288 8.06503ZM2.02436 35.7189C2.14515 36.2578 2.67995 36.5967 3.21886 36.4759L12.001 34.5075C12.5399 34.3867 12.8788 33.8519 12.758 33.313C12.6372 32.7741 12.1024 32.4351 11.5635 32.5559L3.75722 34.3056L2.00749 26.4993C1.8867 25.9604 1.3519 25.6215 0.812987 25.7423C0.274074 25.8631 -0.0648791 26.3978 0.0559144 26.9368L2.02436 35.7189ZM102.991 6.19266C87.9893 0.559916 68.5077 -1.23585 49.9274 2.85192C31.3338 6.94263 13.5776 16.9431 2.15551 34.9648L3.84479 36.0355C14.9226 18.557 32.1661 8.80736 50.3572 4.8052C68.5617 0.800103 87.6497 2.56876 102.288 8.06503L102.991 6.19266Z" fill="CurrentColor"/>
</svg>