<svg viewBox="0 0 37 42" fill="none" xmlns="http://www.w3.org/2000/svg">
<path d="M1.21847 0.0241569C0.679529 -0.0965021 0.144816 0.242584 0.0241569 0.781528C-0.0965021 1.32047 0.242584 1.85518 0.781528 1.97584L1.21847 0.0241569ZM27.6763 41.567C27.9894 42.0219 28.612 42.1369 29.067 41.8237L36.4805 36.7209C36.9355 36.4077 37.0504 35.7851 36.7373 35.3302C36.4242 34.8752 35.8015 34.7603 35.3466 35.0734L28.7567 39.6093L24.2209 33.0195C23.9077 32.5645 23.2851 32.4496 22.8302 32.7627C22.3752 33.0758 22.2603 33.6985 22.5734 34.1534L27.6763 41.567ZM0.781528 1.97584C6.215 3.19229 14.0966 6.61162 20.0104 12.8741C25.8848 19.0947 29.855 28.152 27.5166 40.8185L29.4834 41.1815C31.945 27.848 27.7485 18.1553 21.4646 11.5009C15.2201 4.88838 6.95167 1.30771 1.21847 0.0241569L0.781528 1.97584Z" fill="CurrentColor"/>
</svg>