<svg width="212" height="212" viewBox="0 0 212 212" fill="none" xmlns="http://www.w3.org/2000/svg">
<path d="M146.079 2.02679C171.097 1.15285 190.828 21.7654 190.163 48.061L187.634 148.053C186.969 174.368 166.158 196.4 141.14 197.276L46.0809 200.6C21.0826 201.472 1.35107 180.859 2.01634 154.545L4.54485 54.5528C5.21013 28.2596 26.0216 6.22752 51.0174 5.35358L146.079 2.02679Z" fill="#53978E" stroke="black" stroke-width="4" stroke-miterlimit="10"/>
<path d="M201.081 180.947L201.057 180.935C204.916 173.912 207.242 165.899 207.456 157.425L187.633 148.051C187.385 157.91 184.307 167.167 179.24 174.938C179.235 174.945 179.23 174.955 179.226 174.962C178.428 176.184 177.572 177.362 176.68 178.506C176.309 178.982 175.906 179.426 175.518 179.887C174.95 180.565 174.388 181.246 173.785 181.893C173.127 182.601 172.428 183.262 171.732 183.931C171.274 184.373 170.835 184.836 170.36 185.259C170.191 185.408 170.013 185.548 169.844 185.698C168.96 186.466 168.049 187.197 167.113 187.897C166.867 188.081 166.624 188.272 166.373 188.45C165.269 189.247 164.139 190.005 162.972 190.705C162.803 190.806 162.628 190.893 162.456 190.992C161.449 191.581 160.415 192.132 159.366 192.646C159.012 192.82 158.653 192.987 158.294 193.151C157.289 193.612 156.264 194.037 155.225 194.425C154.972 194.52 154.726 194.628 154.471 194.717C153.198 195.169 151.901 195.558 150.588 195.896C150.262 195.978 149.934 196.043 149.607 196.12C148.565 196.362 147.514 196.567 146.451 196.733C146.063 196.794 145.678 196.859 145.287 196.91C143.916 197.088 142.534 197.226 141.134 197.274L46.0725 200.599C39.1064 200.842 32.5477 199.416 26.7266 196.663L46.5497 206.038C52.3708 208.79 58.9271 210.217 65.8956 209.973L160.955 206.649C162.355 206.6 163.739 206.463 165.11 206.284C165.501 206.233 165.886 206.171 166.274 206.108C167.335 205.941 168.384 205.736 169.425 205.495C169.753 205.417 170.085 205.355 170.411 205.27C171.724 204.934 173.019 204.543 174.291 204.092C174.547 204.003 174.793 203.894 175.046 203.8C176.085 203.411 177.107 202.986 178.114 202.523C178.474 202.358 178.83 202.192 179.185 202.018C180.236 201.504 181.27 200.953 182.28 200.364C182.448 200.265 182.624 200.178 182.793 200.077C183.781 199.483 184.75 198.858 185.697 198.194C185.869 198.076 186.028 197.943 186.196 197.82C186.445 197.641 186.688 197.453 186.932 197.267C187.864 196.567 188.776 195.835 189.66 195.07C189.834 194.92 190.01 194.78 190.181 194.628C190.258 194.561 190.34 194.498 190.417 194.428C190.812 194.073 191.167 193.672 191.55 193.305C192.247 192.636 192.946 191.975 193.606 191.265C193.693 191.173 193.789 191.091 193.876 190.997C194.385 190.442 194.85 189.841 195.334 189.261C195.722 188.798 196.127 188.354 196.499 187.876C196.554 187.803 196.619 187.738 196.677 187.663C197.506 186.586 198.297 185.476 199.044 184.332C199.044 184.332 199.044 184.332 199.044 184.329C199.049 184.322 199.054 184.312 199.058 184.305C199.774 183.219 200.449 182.098 201.081 180.947Z" fill="black" stroke="black" stroke-width="4" stroke-miterlimit="10"/>
<path d="M60.8145 85.457L67.4214 88.581C69.1834 89.4139 70.7767 90.6814 72.0518 92.3689L65.4448 89.2449C64.1697 87.5574 62.5765 86.2899 60.8145 85.457Z" fill="white"/>
<path d="M60.8145 85.457L67.4214 88.581C67.5853 88.6583 67.7492 88.7404 67.9107 88.8249L61.3038 85.7009C61.1423 85.6164 60.9784 85.5343 60.8145 85.457Z" fill="white" stroke="black" stroke-width="4" stroke-miterlimit="10" stroke-linejoin="round"/>
<path d="M61.3047 85.7002L67.9116 88.8242C68.2298 88.9908 68.5383 89.1742 68.842 89.3698L62.2351 86.2458C61.9314 86.0503 61.6205 85.8692 61.3047 85.7002Z" fill="white" stroke="black" stroke-width="4" stroke-miterlimit="10" stroke-linejoin="round"/>
<path d="M62.2344 86.249L68.8413 89.373C69.1498 89.5734 69.4511 89.7858 69.7428 90.0152L63.1359 86.8912C62.8442 86.6618 62.5429 86.447 62.2344 86.249Z" fill="white" stroke="black" stroke-width="4" stroke-miterlimit="10" stroke-linejoin="round"/>
<path d="M63.1367 86.8916L69.7436 90.0156C70.0497 90.2546 70.3486 90.5105 70.6355 90.7833L64.0286 87.6593C63.7417 87.3865 63.4428 87.1306 63.1367 86.8916Z" fill="white" stroke="black" stroke-width="4" stroke-miterlimit="10" stroke-linejoin="round"/>
<path d="M64.0293 87.6592L70.6362 90.7832C70.9496 91.0801 71.2533 91.3988 71.5425 91.7344L64.9356 88.6104C64.6464 88.2724 64.3451 87.9561 64.0293 87.6592Z" fill="white" stroke="black" stroke-width="4" stroke-miterlimit="10" stroke-linejoin="round"/>
<path d="M64.9336 88.6104L71.5405 91.7343C71.7165 91.9395 71.8876 92.152 72.0539 92.3693L65.447 89.2453C65.2807 89.0256 65.1096 88.8131 64.9336 88.6104Z" fill="white" stroke="black" stroke-width="4" stroke-miterlimit="10" stroke-linejoin="round"/>
<path d="M60.8145 85.457L67.4214 88.581C69.1834 89.4139 70.7767 90.6814 72.0518 92.3689L65.4448 89.2449C64.1697 87.5574 62.5765 86.2899 60.8145 85.457Z" stroke="black" stroke-width="4" stroke-miterlimit="10" stroke-linejoin="round"/>
<path d="M65.4434 89.2451L72.0527 92.3691L87.2768 112.542L80.6675 109.416L65.4434 89.2451Z" fill="white" stroke="black" stroke-width="4" stroke-miterlimit="10" stroke-linejoin="round"/>
<path d="M81.2651 149.241L74.6582 146.117C76.4443 146.962 78.4305 147.378 80.4817 147.305C80.6119 147.3 80.7421 147.293 80.8746 147.286C85.1362 146.987 89.1255 144.599 91.6636 140.85L98.2705 143.974C95.7324 147.723 91.7432 150.111 87.4816 150.41C87.3514 150.42 87.2188 150.424 87.0887 150.429C85.0374 150.502 83.0488 150.086 81.2651 149.241Z" fill="white"/>
<path d="M91.6597 140.85L98.2667 143.974C98.0859 144.242 97.8979 144.502 97.7026 144.756L91.0957 141.632C91.2909 141.378 91.479 141.118 91.6597 140.85Z" fill="white" stroke="black" stroke-width="4" stroke-miterlimit="10" stroke-linejoin="round"/>
<path d="M91.0962 141.632L97.7031 144.756C97.4355 145.101 97.1583 145.434 96.8667 145.75L90.2598 142.626C90.549 142.308 90.8286 141.977 91.0962 141.632Z" fill="white" stroke="black" stroke-width="4" stroke-miterlimit="10" stroke-linejoin="round"/>
<path d="M90.2582 142.626L96.8651 145.75C96.5349 146.11 96.1902 146.453 95.8335 146.774L89.2266 143.65C89.5833 143.329 89.928 142.986 90.2582 142.626Z" fill="white" stroke="black" stroke-width="4" stroke-miterlimit="10" stroke-linejoin="round"/>
<path d="M89.2266 143.652L95.8335 146.776C95.3876 147.18 94.92 147.551 94.4331 147.894L87.8262 144.77C88.3131 144.427 88.7807 144.053 89.2266 143.652Z" fill="white" stroke="black" stroke-width="4" stroke-miterlimit="10" stroke-linejoin="round"/>
<path d="M87.8287 144.768L94.4356 147.892C92.3674 149.347 89.9715 150.236 87.4816 150.41C87.3514 150.419 87.2188 150.424 87.0887 150.429C85.0374 150.501 83.0488 150.084 81.2651 149.241L74.6582 146.117C76.4443 146.962 78.4305 147.377 80.4817 147.305C80.6119 147.3 80.7421 147.293 80.8746 147.286C83.3622 147.112 85.7605 146.223 87.8287 144.768Z" fill="black" stroke="black" stroke-width="4" stroke-miterlimit="10" stroke-linejoin="round"/>
<path d="M81.2651 149.241L74.6582 146.117C76.4443 146.962 78.4305 147.378 80.4817 147.305C80.6119 147.3 80.7421 147.293 80.8746 147.286C85.1362 146.987 89.1255 144.599 91.6636 140.85L98.2705 143.974C95.7324 147.723 91.7432 150.111 87.4816 150.41C87.3514 150.42 87.2188 150.424 87.0887 150.429C85.0374 150.502 83.0488 150.086 81.2651 149.241Z" stroke="black" stroke-width="4" stroke-miterlimit="10" stroke-linejoin="round"/>
<path d="M140.765 68.1113L147.372 71.2377L98.2671 143.973L91.6602 140.849L140.765 68.1113Z" fill="#B8BDBF" stroke="black" stroke-width="4" stroke-miterlimit="10" stroke-linejoin="round"/>
<path d="M130.262 46.1349C132.943 46.0407 135.628 46.7843 137.944 48.4477C143.941 52.7353 145.204 61.5327 140.764 68.1114L91.6595 140.849C89.1214 144.598 85.1322 146.986 80.8706 147.285C80.7404 147.295 80.6078 147.3 80.4777 147.305C76.3631 147.45 72.5065 145.629 70.0238 142.334L43.8902 107.748C39.3803 101.782 40.5638 92.7919 46.5151 87.681C49.0581 85.4986 52.0566 84.376 55.0142 84.2746C58.9793 84.137 62.8624 85.8293 65.4464 89.2454L80.6705 109.416L119.032 52.6001C121.756 48.5491 126.003 46.2846 130.262 46.1349Z" fill="#F6F7F7" stroke="black" stroke-width="4" stroke-miterlimit="10" stroke-linejoin="round"/>
<path d="M209.985 57.4354C210.014 56.3104 209.999 55.1999 209.953 54.099C209.939 53.7344 209.903 53.3747 209.879 53.0126C209.84 52.4187 209.816 51.82 209.758 51.2333C209.746 51.1126 209.722 50.9967 209.708 50.8784C209.626 50.1155 209.512 49.3671 209.397 48.6187C209.332 48.1938 209.281 47.7641 209.204 47.3464C209.037 46.4363 208.835 45.543 208.618 44.657C208.56 44.4132 208.517 44.1645 208.454 43.9231C208.162 42.8005 207.83 41.6972 207.461 40.6156C207.36 40.3162 207.234 40.0314 207.128 39.7344C206.846 38.957 206.56 38.1845 206.237 37.4313C206.205 37.3612 206.184 37.284 206.152 37.214C206.053 36.9846 205.93 36.7746 205.827 36.5477C205.446 35.7075 205.048 34.8794 204.622 34.0683C204.426 33.6989 204.221 33.3343 204.017 32.9722C203.604 32.2383 203.171 31.5237 202.717 30.8187C202.582 30.6063 202.464 30.3794 202.324 30.1693C202.259 30.0727 202.18 29.9883 202.115 29.8917C201.257 28.6266 200.338 27.4123 199.36 26.2535C199.285 26.1641 199.222 26.0603 199.145 25.971C199.005 25.8093 198.846 25.6668 198.704 25.5075C198.012 24.7229 197.294 23.9696 196.547 23.2405C196.395 23.0933 196.262 22.9243 196.108 22.7794C196.031 22.707 195.944 22.6442 195.867 22.5718C194.985 21.7485 194.078 20.9567 193.131 20.2131C193.119 20.2035 193.107 20.1914 193.093 20.1817C192.991 20.1021 192.881 20.0369 192.777 19.9572C191.977 19.344 191.157 18.7573 190.316 18.2021C190.222 18.1393 190.137 18.0693 190.043 18.0065C189.8 17.8496 189.54 17.7168 189.291 17.5647C188.667 17.1784 188.038 16.8042 187.394 16.4518C187.228 16.3624 187.074 16.2538 186.908 16.1669C186.368 15.882 185.823 15.6092 185.268 15.3461L165.445 5.97168C166.168 6.3145 166.87 6.69353 167.569 7.07739C168.217 7.42986 168.849 7.80648 169.473 8.19517C169.813 8.4052 170.158 8.608 170.493 8.82769C171.336 9.38296 172.156 9.96961 172.956 10.5852C173.072 10.6746 173.192 10.7518 173.308 10.8411C174.255 11.5847 175.164 12.3766 176.044 13.1998C176.275 13.4171 176.497 13.6465 176.724 13.871C177.468 14.6001 178.189 15.3557 178.881 16.1379C179.1 16.3866 179.322 16.6304 179.537 16.8839C180.515 18.0427 181.434 19.2547 182.292 20.5221C182.499 20.8263 182.694 21.1402 182.894 21.4492C183.347 22.1541 183.781 22.8712 184.193 23.6051C184.398 23.9672 184.603 24.3293 184.796 24.6987C185.223 25.5075 185.623 26.3356 186.001 27.1757C186.136 27.4726 186.283 27.7599 186.411 28.0617C186.732 28.8125 187.018 29.5827 187.298 30.3576C187.407 30.6546 187.532 30.9443 187.633 31.2461C188.002 32.3276 188.335 33.4309 188.626 34.5535C188.689 34.7949 188.732 35.046 188.79 35.2874C189.005 36.1759 189.209 37.0667 189.376 37.9769C189.451 38.3969 189.501 38.8267 189.569 39.2492C189.684 39.9976 189.798 40.746 189.88 41.5089C189.954 42.2138 190.005 42.9284 190.051 43.643C190.075 44.0052 190.109 44.3649 190.125 44.7294C190.171 45.8303 190.186 46.9433 190.157 48.0683L187.628 148.06C187.609 148.789 187.575 149.516 187.527 150.24C187.399 152.138 187.165 154.009 186.833 155.848C186.558 157.372 186.216 158.876 185.811 160.353C185.437 161.715 185.008 163.052 184.531 164.368C184.073 165.626 183.564 166.864 183.015 168.074C182.47 169.269 181.884 170.44 181.255 171.584L201.078 180.959C201.707 179.814 202.293 178.643 202.838 177.448C203.39 176.236 203.896 175 204.354 173.742C204.834 172.429 205.263 171.089 205.636 169.728C206.041 168.25 206.384 166.748 206.658 165.223C206.989 163.383 207.222 161.512 207.353 159.614C207.401 158.893 207.435 158.166 207.454 157.434L209.985 57.4354Z" fill="#44736C" stroke="black" stroke-width="4" stroke-miterlimit="10"/>
<path d="M136.008 47.3047L142.615 50.4287C143.282 50.7449 143.931 51.124 144.55 51.5706C150.547 55.8582 151.81 64.6556 147.37 71.2343L140.764 68.1103C145.204 61.5316 143.94 52.7342 137.943 48.4466C137.324 48.0024 136.675 47.6209 136.008 47.3047Z" fill="#B8BDBF" stroke="black" stroke-width="4" stroke-miterlimit="10" stroke-linejoin="round"/>
</svg>
